G75*
G70*
%OFA0B0*%
%FSLAX24Y24*%
%IPPOS*%
%LPD*%
%AMOC8*
5,1,8,0,0,1.08239X$1,22.5*
%
%ADD10C,0.0520*%
%ADD11OC8,0.0630*%
%ADD12C,0.0630*%
%ADD13OC8,0.0600*%
%ADD14R,0.0800X0.0800*%
%ADD15C,0.0800*%
%ADD16C,0.0740*%
%ADD17OC8,0.0520*%
%ADD18C,0.0120*%
%ADD19C,0.0500*%
%ADD20C,0.0100*%
%ADD21C,0.0160*%
D10*
X004026Y004891D02*
X004026Y005411D01*
X005026Y005411D02*
X005026Y004891D01*
X006026Y004891D02*
X006026Y005411D01*
X007026Y005411D02*
X007026Y004891D01*
X008026Y004891D02*
X008026Y005411D01*
X009026Y005411D02*
X009026Y004891D01*
X010026Y004891D02*
X010026Y005411D01*
X011026Y005411D02*
X011026Y004891D01*
X012026Y004891D02*
X012026Y005411D01*
X013026Y005411D02*
X013026Y004891D01*
X013026Y007891D02*
X013026Y008411D01*
X012026Y008411D02*
X012026Y007891D01*
X011026Y007891D02*
X011026Y008411D01*
X010026Y008411D02*
X010026Y007891D01*
X009026Y007891D02*
X009026Y008411D01*
X008026Y008411D02*
X008026Y007891D01*
X007026Y007891D02*
X007026Y008411D01*
X006026Y008411D02*
X006026Y007891D01*
X005026Y007891D02*
X005026Y008411D01*
X004026Y008411D02*
X004026Y007891D01*
D11*
X015401Y007526D03*
X015401Y005651D03*
D12*
X015401Y004651D03*
X015401Y008526D03*
D13*
X002151Y007651D03*
X001151Y007651D03*
X001151Y006651D03*
X002151Y006651D03*
X002151Y005651D03*
X001151Y005651D03*
D14*
X002151Y002276D03*
X006307Y002276D03*
X010464Y002276D03*
X016831Y002276D03*
D15*
X018349Y002276D03*
X013219Y002276D03*
X011842Y002276D03*
X009063Y002276D03*
X007685Y002276D03*
X004907Y002276D03*
X003529Y002276D03*
D16*
X018076Y007151D03*
X017976Y008151D03*
X018076Y009151D03*
D17*
X018026Y005651D03*
X018776Y005151D03*
X018026Y004651D03*
D18*
X007026Y007526D02*
X007026Y008151D01*
X006026Y008151D02*
X006026Y009026D01*
X005651Y009401D01*
X001901Y009401D01*
X001151Y008651D01*
X001151Y007651D01*
X001651Y007151D02*
X004276Y007151D01*
X005026Y007901D01*
X005026Y008151D01*
X006151Y006651D02*
X007026Y007526D01*
X006151Y006651D02*
X002151Y006651D01*
X001651Y006151D02*
X003276Y006151D01*
X004026Y005401D01*
X004026Y005151D01*
X001651Y006151D02*
X001151Y005651D01*
X001151Y006651D02*
X001651Y007151D01*
D19*
X002151Y005651D02*
X002151Y004651D01*
X003526Y003276D01*
X003526Y002279D01*
X003526Y001651D01*
X004026Y001151D01*
X012901Y001151D01*
X013276Y001526D01*
X013276Y002220D01*
X013219Y002276D01*
X016831Y002276D02*
X017831Y001276D01*
X019026Y001276D01*
X019526Y001776D01*
X019526Y007151D01*
X018526Y008151D01*
X017976Y008151D01*
X016651Y007901D02*
X016651Y007026D01*
X018026Y005651D01*
X018026Y004651D02*
X015401Y004651D01*
X016651Y007901D02*
X016026Y008526D01*
X015401Y008526D01*
X003529Y002276D02*
X003526Y002279D01*
D20*
X000601Y000601D02*
X000601Y009697D01*
X019946Y009697D01*
X019946Y000601D01*
X000601Y000601D01*
X000601Y000644D02*
X019946Y000644D01*
X019946Y000742D02*
X000601Y000742D01*
X000601Y000841D02*
X019946Y000841D01*
X019946Y000940D02*
X019283Y000940D01*
X019264Y000920D02*
X019110Y000856D01*
X017915Y000856D01*
X017748Y000856D01*
X017593Y000920D01*
X016807Y001706D01*
X016361Y001706D01*
X016261Y001806D01*
X016261Y002747D01*
X016361Y002846D01*
X017302Y002846D01*
X017401Y002747D01*
X017401Y002300D01*
X018005Y001696D01*
X018852Y001696D01*
X019106Y001950D01*
X019106Y004901D01*
X018946Y004741D01*
X018806Y004741D01*
X018806Y005121D01*
X018746Y005121D01*
X018746Y004741D01*
X018606Y004741D01*
X018366Y004981D01*
X018366Y005121D01*
X018746Y005121D01*
X018746Y005181D01*
X018366Y005181D01*
X018366Y005321D01*
X018606Y005561D01*
X018746Y005561D01*
X018746Y005181D01*
X018806Y005181D01*
X018806Y005561D01*
X018946Y005561D01*
X019106Y005401D01*
X019106Y006977D01*
X018352Y007731D01*
X018320Y007731D01*
X018282Y007693D01*
X018198Y007658D01*
X018198Y007658D01*
X018276Y007633D01*
X018349Y007596D01*
X018415Y007548D01*
X018473Y007490D01*
X018521Y007424D01*
X018558Y007351D01*
X018583Y007273D01*
X018595Y007201D01*
X018126Y007201D01*
X018126Y007101D01*
X018126Y006633D01*
X018198Y006644D01*
X018276Y006669D01*
X018349Y006706D01*
X018415Y006755D01*
X018473Y006812D01*
X018521Y006879D01*
X018558Y006952D01*
X018583Y007029D01*
X018595Y007101D01*
X018126Y007101D01*
X018026Y007101D01*
X018026Y006633D01*
X017954Y006644D01*
X017877Y006669D01*
X017804Y006706D01*
X017737Y006755D01*
X017680Y006812D01*
X017631Y006879D01*
X017594Y006952D01*
X017569Y007029D01*
X017558Y007101D01*
X018026Y007101D01*
X018026Y007201D01*
X017558Y007201D01*
X017569Y007273D01*
X017594Y007351D01*
X017631Y007424D01*
X017680Y007490D01*
X017737Y007548D01*
X017804Y007596D01*
X017849Y007619D01*
X017670Y007693D01*
X017518Y007845D01*
X017436Y008044D01*
X017436Y008259D01*
X017518Y008457D01*
X017670Y008609D01*
X017822Y008672D01*
X017770Y008693D01*
X017618Y008845D01*
X017536Y009044D01*
X017536Y009151D01*
X009630Y009151D01*
X009276Y008798D01*
X009276Y008769D01*
X009391Y008655D01*
X009456Y008497D01*
X009456Y007806D01*
X009391Y007648D01*
X009270Y007527D01*
X009112Y007461D01*
X008941Y007461D01*
X008783Y007527D01*
X008662Y007648D01*
X008596Y007806D01*
X008596Y008497D01*
X008662Y008655D01*
X008776Y008769D01*
X008776Y008851D01*
X008776Y008951D01*
X008814Y009043D01*
X009314Y009543D01*
X009385Y009613D01*
X009476Y009651D01*
X017776Y009651D01*
X017872Y009651D01*
X017969Y009691D01*
X018184Y009691D01*
X018382Y009609D01*
X018534Y009457D01*
X018616Y009259D01*
X018616Y009044D01*
X018534Y008845D01*
X018382Y008693D01*
X018230Y008630D01*
X018282Y008609D01*
X018320Y008571D01*
X018443Y008571D01*
X018610Y008571D01*
X018764Y008507D01*
X019764Y007507D01*
X019882Y007389D01*
X019946Y007235D01*
X019946Y001860D01*
X019946Y001693D01*
X019882Y001538D01*
X019382Y001038D01*
X019946Y001038D01*
X019946Y001137D02*
X019481Y001137D01*
X019579Y001235D02*
X019946Y001235D01*
X019946Y001334D02*
X019678Y001334D01*
X019776Y001432D02*
X019946Y001432D01*
X019946Y001531D02*
X019875Y001531D01*
X019920Y001629D02*
X019946Y001629D01*
X019946Y001728D02*
X019946Y001728D01*
X019946Y001826D02*
X019946Y001826D01*
X019946Y001925D02*
X019946Y001925D01*
X019946Y002024D02*
X019946Y002024D01*
X019946Y002122D02*
X019946Y002122D01*
X019946Y002221D02*
X019946Y002221D01*
X019946Y002319D02*
X019946Y002319D01*
X019946Y002418D02*
X019946Y002418D01*
X019946Y002516D02*
X019946Y002516D01*
X019946Y002615D02*
X019946Y002615D01*
X019946Y002713D02*
X019946Y002713D01*
X019946Y002812D02*
X019946Y002812D01*
X019946Y002910D02*
X019946Y002910D01*
X019946Y003009D02*
X019946Y003009D01*
X019946Y003107D02*
X019946Y003107D01*
X019946Y003206D02*
X019946Y003206D01*
X019946Y003305D02*
X019946Y003305D01*
X019946Y003403D02*
X019946Y003403D01*
X019946Y003502D02*
X019946Y003502D01*
X019946Y003600D02*
X019946Y003600D01*
X019946Y003699D02*
X019946Y003699D01*
X019946Y003797D02*
X019946Y003797D01*
X019946Y003896D02*
X019946Y003896D01*
X019946Y003994D02*
X019946Y003994D01*
X019946Y004093D02*
X019946Y004093D01*
X019946Y004191D02*
X019946Y004191D01*
X019946Y004290D02*
X019946Y004290D01*
X019946Y004389D02*
X019946Y004389D01*
X019946Y004487D02*
X019946Y004487D01*
X019946Y004586D02*
X019946Y004586D01*
X019946Y004684D02*
X019946Y004684D01*
X019946Y004783D02*
X019946Y004783D01*
X019946Y004881D02*
X019946Y004881D01*
X019946Y004980D02*
X019946Y004980D01*
X019946Y005078D02*
X019946Y005078D01*
X019946Y005177D02*
X019946Y005177D01*
X019946Y005275D02*
X019946Y005275D01*
X019946Y005374D02*
X019946Y005374D01*
X019946Y005473D02*
X019946Y005473D01*
X019946Y005571D02*
X019946Y005571D01*
X019946Y005670D02*
X019946Y005670D01*
X019946Y005768D02*
X019946Y005768D01*
X019946Y005867D02*
X019946Y005867D01*
X019946Y005965D02*
X019946Y005965D01*
X019946Y006064D02*
X019946Y006064D01*
X019946Y006162D02*
X019946Y006162D01*
X019946Y006261D02*
X019946Y006261D01*
X019946Y006359D02*
X019946Y006359D01*
X019946Y006458D02*
X019946Y006458D01*
X019946Y006556D02*
X019946Y006556D01*
X019946Y006655D02*
X019946Y006655D01*
X019946Y006754D02*
X019946Y006754D01*
X019946Y006852D02*
X019946Y006852D01*
X019946Y006951D02*
X019946Y006951D01*
X019946Y007049D02*
X019946Y007049D01*
X019946Y007148D02*
X019946Y007148D01*
X019941Y007246D02*
X019946Y007246D01*
X019946Y007345D02*
X019901Y007345D01*
X019946Y007443D02*
X019828Y007443D01*
X019729Y007542D02*
X019946Y007542D01*
X019946Y007640D02*
X019631Y007640D01*
X019532Y007739D02*
X019946Y007739D01*
X019946Y007838D02*
X019434Y007838D01*
X019335Y007936D02*
X019946Y007936D01*
X019946Y008035D02*
X019237Y008035D01*
X019138Y008133D02*
X019946Y008133D01*
X019946Y008232D02*
X019040Y008232D01*
X018941Y008330D02*
X019946Y008330D01*
X019946Y008429D02*
X018842Y008429D01*
X018715Y008527D02*
X019946Y008527D01*
X019946Y008626D02*
X018241Y008626D01*
X018413Y008724D02*
X019946Y008724D01*
X019946Y008823D02*
X018512Y008823D01*
X018566Y008922D02*
X019946Y008922D01*
X019946Y009020D02*
X018606Y009020D01*
X018616Y009119D02*
X019946Y009119D01*
X019946Y009217D02*
X018616Y009217D01*
X018592Y009316D02*
X019946Y009316D01*
X019946Y009414D02*
X018552Y009414D01*
X018478Y009513D02*
X019946Y009513D01*
X019946Y009611D02*
X018376Y009611D01*
X017536Y009119D02*
X009597Y009119D01*
X009499Y009020D02*
X017546Y009020D01*
X017587Y008922D02*
X016169Y008922D01*
X016110Y008946D02*
X015943Y008946D01*
X015655Y008946D01*
X015498Y009011D01*
X015305Y009011D01*
X015126Y008937D01*
X014990Y008801D01*
X014916Y008623D01*
X014916Y008430D01*
X014990Y008251D01*
X015126Y008115D01*
X015305Y008041D01*
X015498Y008041D01*
X015655Y008106D01*
X015852Y008106D01*
X016231Y007727D01*
X016231Y007110D01*
X016231Y006943D01*
X016295Y006788D01*
X017596Y005487D01*
X017596Y005473D01*
X017848Y005221D01*
X018204Y005221D01*
X018456Y005473D01*
X018456Y005829D01*
X018204Y006081D01*
X018190Y006081D01*
X017071Y007200D01*
X017071Y007985D01*
X017007Y008139D01*
X016889Y008257D01*
X016264Y008882D01*
X016110Y008946D01*
X016323Y008823D02*
X017641Y008823D01*
X017739Y008724D02*
X016422Y008724D01*
X016520Y008626D02*
X017711Y008626D01*
X017589Y008527D02*
X016619Y008527D01*
X016717Y008429D02*
X017507Y008429D01*
X017466Y008330D02*
X016816Y008330D01*
X016915Y008232D02*
X017436Y008232D01*
X017436Y008133D02*
X017010Y008133D01*
X017050Y008035D02*
X017440Y008035D01*
X017481Y007936D02*
X017071Y007936D01*
X017071Y007838D02*
X017526Y007838D01*
X017625Y007739D02*
X017071Y007739D01*
X017071Y007640D02*
X017798Y007640D01*
X017732Y007542D02*
X017071Y007542D01*
X017071Y007443D02*
X017646Y007443D01*
X017592Y007345D02*
X017071Y007345D01*
X017071Y007246D02*
X017565Y007246D01*
X017566Y007049D02*
X017222Y007049D01*
X017321Y006951D02*
X017595Y006951D01*
X017651Y006852D02*
X017419Y006852D01*
X017518Y006754D02*
X017739Y006754D01*
X017616Y006655D02*
X017920Y006655D01*
X018026Y006655D02*
X018126Y006655D01*
X018126Y006754D02*
X018026Y006754D01*
X018026Y006852D02*
X018126Y006852D01*
X018126Y006951D02*
X018026Y006951D01*
X018026Y007049D02*
X018126Y007049D01*
X018126Y007148D02*
X018936Y007148D01*
X019034Y007049D02*
X018586Y007049D01*
X018558Y006951D02*
X019106Y006951D01*
X019106Y006852D02*
X018502Y006852D01*
X018414Y006754D02*
X019106Y006754D01*
X019106Y006655D02*
X018232Y006655D01*
X017813Y006458D02*
X019106Y006458D01*
X019106Y006556D02*
X017715Y006556D01*
X017912Y006359D02*
X019106Y006359D01*
X019106Y006261D02*
X018010Y006261D01*
X018109Y006162D02*
X019106Y006162D01*
X019106Y006064D02*
X018222Y006064D01*
X018320Y005965D02*
X019106Y005965D01*
X019106Y005867D02*
X018419Y005867D01*
X018456Y005768D02*
X019106Y005768D01*
X019106Y005670D02*
X018456Y005670D01*
X018456Y005571D02*
X019106Y005571D01*
X019106Y005473D02*
X019035Y005473D01*
X018806Y005473D02*
X018746Y005473D01*
X018746Y005374D02*
X018806Y005374D01*
X018806Y005275D02*
X018746Y005275D01*
X018746Y005177D02*
X013056Y005177D01*
X013056Y005181D02*
X013436Y005181D01*
X013436Y005443D01*
X013426Y005507D01*
X013406Y005569D01*
X013377Y005626D01*
X013339Y005678D01*
X013293Y005724D01*
X013241Y005762D01*
X013184Y005791D01*
X013122Y005811D01*
X013058Y005821D01*
X013056Y005821D01*
X013056Y005181D01*
X013056Y005121D01*
X013056Y004481D01*
X013058Y004481D01*
X013122Y004491D01*
X013184Y004511D01*
X013241Y004541D01*
X013293Y004578D01*
X013339Y004624D01*
X013377Y004676D01*
X013406Y004734D01*
X013426Y004795D01*
X013436Y004859D01*
X013436Y005121D01*
X013056Y005121D01*
X012996Y005121D01*
X012996Y004481D01*
X012994Y004481D01*
X012930Y004491D01*
X012869Y004511D01*
X012811Y004541D01*
X012759Y004578D01*
X012713Y004624D01*
X012676Y004676D01*
X012646Y004734D01*
X012626Y004795D01*
X012616Y004859D01*
X012616Y005121D01*
X012996Y005121D01*
X012996Y005181D01*
X012616Y005181D01*
X012616Y005443D01*
X012626Y005507D01*
X012646Y005569D01*
X012676Y005626D01*
X012713Y005678D01*
X012759Y005724D01*
X012811Y005762D01*
X012869Y005791D01*
X012930Y005811D01*
X012994Y005821D01*
X012996Y005821D01*
X012996Y005181D01*
X013056Y005181D01*
X012996Y005177D02*
X012456Y005177D01*
X012456Y005275D02*
X012616Y005275D01*
X012616Y005374D02*
X012456Y005374D01*
X012456Y005473D02*
X012621Y005473D01*
X012648Y005571D02*
X012425Y005571D01*
X012456Y005497D02*
X012391Y005655D01*
X012270Y005776D01*
X012112Y005841D01*
X011941Y005841D01*
X011783Y005776D01*
X011662Y005655D01*
X011596Y005497D01*
X011596Y004806D01*
X011662Y004648D01*
X011783Y004527D01*
X011941Y004461D01*
X012112Y004461D01*
X012270Y004527D01*
X012391Y004648D01*
X012456Y004806D01*
X012456Y005497D01*
X012376Y005670D02*
X012707Y005670D01*
X012824Y005768D02*
X012277Y005768D01*
X011775Y005768D02*
X011277Y005768D01*
X011270Y005776D02*
X011112Y005841D01*
X010941Y005841D01*
X010783Y005776D01*
X010662Y005655D01*
X010596Y005497D01*
X010596Y004806D01*
X010662Y004648D01*
X010783Y004527D01*
X010941Y004461D01*
X011112Y004461D01*
X011270Y004527D01*
X011391Y004648D01*
X011456Y004806D01*
X011456Y005497D01*
X011391Y005655D01*
X011270Y005776D01*
X011376Y005670D02*
X011677Y005670D01*
X011627Y005571D02*
X011425Y005571D01*
X011456Y005473D02*
X011596Y005473D01*
X011596Y005374D02*
X011456Y005374D01*
X011456Y005275D02*
X011596Y005275D01*
X011596Y005177D02*
X011456Y005177D01*
X011456Y005078D02*
X011596Y005078D01*
X011596Y004980D02*
X011456Y004980D01*
X011456Y004881D02*
X011596Y004881D01*
X011606Y004783D02*
X011447Y004783D01*
X011406Y004684D02*
X011646Y004684D01*
X011724Y004586D02*
X011329Y004586D01*
X011174Y004487D02*
X011878Y004487D01*
X012174Y004487D02*
X012956Y004487D01*
X012996Y004487D02*
X013056Y004487D01*
X013096Y004487D02*
X014944Y004487D01*
X014916Y004555D02*
X014990Y004376D01*
X015126Y004240D01*
X015305Y004166D01*
X015498Y004166D01*
X015655Y004231D01*
X017838Y004231D01*
X017848Y004221D01*
X018204Y004221D01*
X018456Y004473D01*
X018456Y004829D01*
X018204Y005081D01*
X017848Y005081D01*
X017838Y005071D01*
X015655Y005071D01*
X015498Y005136D01*
X015305Y005136D01*
X015126Y005062D01*
X014990Y004926D01*
X014916Y004748D01*
X014916Y004555D01*
X014916Y004586D02*
X013300Y004586D01*
X013381Y004684D02*
X014916Y004684D01*
X014931Y004783D02*
X013422Y004783D01*
X013436Y004881D02*
X014972Y004881D01*
X015044Y004980D02*
X013436Y004980D01*
X013436Y005078D02*
X015165Y005078D01*
X015209Y005186D02*
X014936Y005459D01*
X014936Y005621D01*
X015371Y005621D01*
X015371Y005681D01*
X014936Y005681D01*
X014936Y005844D01*
X015209Y006116D01*
X015371Y006116D01*
X015371Y005681D01*
X015431Y005681D01*
X015431Y006116D01*
X015594Y006116D01*
X015866Y005844D01*
X015866Y005681D01*
X015431Y005681D01*
X015431Y005621D01*
X015431Y005186D01*
X015594Y005186D01*
X015866Y005459D01*
X015866Y005621D01*
X015431Y005621D01*
X015371Y005621D01*
X015371Y005186D01*
X015209Y005186D01*
X015119Y005275D02*
X013436Y005275D01*
X013436Y005374D02*
X015021Y005374D01*
X014936Y005473D02*
X013432Y005473D01*
X013405Y005571D02*
X014936Y005571D01*
X014936Y005768D02*
X013229Y005768D01*
X013345Y005670D02*
X015371Y005670D01*
X015431Y005670D02*
X017414Y005670D01*
X017315Y005768D02*
X015866Y005768D01*
X015843Y005867D02*
X017217Y005867D01*
X017118Y005965D02*
X015745Y005965D01*
X015646Y006064D02*
X017020Y006064D01*
X016921Y006162D02*
X003590Y006162D01*
X003689Y006064D02*
X015156Y006064D01*
X015058Y005965D02*
X003787Y005965D01*
X003886Y005867D02*
X014959Y005867D01*
X015371Y005867D02*
X015431Y005867D01*
X015431Y005965D02*
X015371Y005965D01*
X015371Y006064D02*
X015431Y006064D01*
X015431Y005768D02*
X015371Y005768D01*
X015371Y005571D02*
X015431Y005571D01*
X015431Y005473D02*
X015371Y005473D01*
X015371Y005374D02*
X015431Y005374D01*
X015431Y005275D02*
X015371Y005275D01*
X015683Y005275D02*
X017794Y005275D01*
X017695Y005374D02*
X015782Y005374D01*
X015866Y005473D02*
X017597Y005473D01*
X017512Y005571D02*
X015866Y005571D01*
X015637Y005078D02*
X017845Y005078D01*
X018207Y005078D02*
X018366Y005078D01*
X018368Y004980D02*
X018306Y004980D01*
X018404Y004881D02*
X018466Y004881D01*
X018456Y004783D02*
X018565Y004783D01*
X018456Y004684D02*
X019106Y004684D01*
X019106Y004586D02*
X018456Y004586D01*
X018456Y004487D02*
X019106Y004487D01*
X019106Y004389D02*
X018372Y004389D01*
X018273Y004290D02*
X019106Y004290D01*
X019106Y004191D02*
X015559Y004191D01*
X015244Y004191D02*
X000601Y004191D01*
X000601Y004093D02*
X019106Y004093D01*
X019106Y003994D02*
X000601Y003994D01*
X000601Y003896D02*
X019106Y003896D01*
X019106Y003797D02*
X000601Y003797D01*
X000601Y003699D02*
X019106Y003699D01*
X019106Y003600D02*
X000601Y003600D01*
X000601Y003502D02*
X019106Y003502D01*
X019106Y003403D02*
X000601Y003403D01*
X000601Y003305D02*
X019106Y003305D01*
X019106Y003206D02*
X000601Y003206D01*
X000601Y003107D02*
X019106Y003107D01*
X019106Y003009D02*
X000601Y003009D01*
X000601Y002910D02*
X019106Y002910D01*
X019106Y002812D02*
X018480Y002812D01*
X018478Y002813D02*
X018399Y002825D01*
X018399Y002326D01*
X018898Y002326D01*
X018886Y002405D01*
X018859Y002487D01*
X018819Y002564D01*
X018769Y002634D01*
X018707Y002696D01*
X018637Y002747D01*
X018560Y002786D01*
X018478Y002813D01*
X018399Y002812D02*
X018299Y002812D01*
X018299Y002825D02*
X018220Y002813D01*
X018138Y002786D01*
X018061Y002747D01*
X017991Y002696D01*
X017930Y002634D01*
X017879Y002564D01*
X017839Y002487D01*
X017813Y002405D01*
X017800Y002326D01*
X018299Y002326D01*
X018299Y002226D01*
X018399Y002226D01*
X018399Y001727D01*
X018478Y001740D01*
X018560Y001766D01*
X018637Y001806D01*
X018707Y001857D01*
X018769Y001918D01*
X018819Y001988D01*
X018859Y002065D01*
X018886Y002147D01*
X018898Y002226D01*
X018399Y002226D01*
X018399Y002326D01*
X018299Y002326D01*
X018299Y002825D01*
X018218Y002812D02*
X017336Y002812D01*
X017401Y002713D02*
X018015Y002713D01*
X017915Y002615D02*
X017401Y002615D01*
X017401Y002516D02*
X017854Y002516D01*
X017817Y002418D02*
X017401Y002418D01*
X017401Y002319D02*
X018299Y002319D01*
X018299Y002226D02*
X017800Y002226D01*
X017813Y002147D01*
X017839Y002065D01*
X017879Y001988D01*
X017930Y001918D01*
X017991Y001857D01*
X018061Y001806D01*
X018138Y001766D01*
X018220Y001740D01*
X018299Y001727D01*
X018299Y002226D01*
X018299Y002221D02*
X018399Y002221D01*
X018399Y002319D02*
X019106Y002319D01*
X019106Y002221D02*
X018897Y002221D01*
X018877Y002122D02*
X019106Y002122D01*
X019106Y002024D02*
X018838Y002024D01*
X018774Y001925D02*
X019081Y001925D01*
X018982Y001826D02*
X018666Y001826D01*
X018884Y001728D02*
X018403Y001728D01*
X018399Y001728D02*
X018299Y001728D01*
X018295Y001728D02*
X017973Y001728D01*
X018032Y001826D02*
X017875Y001826D01*
X017924Y001925D02*
X017776Y001925D01*
X017861Y002024D02*
X017678Y002024D01*
X017579Y002122D02*
X017821Y002122D01*
X017801Y002221D02*
X017481Y002221D01*
X018299Y002122D02*
X018399Y002122D01*
X018399Y002024D02*
X018299Y002024D01*
X018299Y001925D02*
X018399Y001925D01*
X018399Y001826D02*
X018299Y001826D01*
X018299Y002418D02*
X018399Y002418D01*
X018399Y002516D02*
X018299Y002516D01*
X018299Y002615D02*
X018399Y002615D01*
X018399Y002713D02*
X018299Y002713D01*
X018683Y002713D02*
X019106Y002713D01*
X019106Y002615D02*
X018783Y002615D01*
X018844Y002516D02*
X019106Y002516D01*
X019106Y002418D02*
X018881Y002418D01*
X016983Y001531D02*
X000601Y001531D01*
X000601Y001629D02*
X016884Y001629D01*
X017081Y001432D02*
X000601Y001432D01*
X000601Y001334D02*
X017180Y001334D01*
X017278Y001235D02*
X000601Y001235D01*
X000601Y001137D02*
X017377Y001137D01*
X017475Y001038D02*
X000601Y001038D01*
X000601Y000940D02*
X017574Y000940D01*
X016339Y001728D02*
X013273Y001728D01*
X013269Y001728D02*
X013169Y001728D01*
X013169Y001727D02*
X013169Y002226D01*
X012671Y002226D01*
X012683Y002147D01*
X012710Y002065D01*
X012749Y001988D01*
X012800Y001918D01*
X012861Y001857D01*
X012931Y001806D01*
X013008Y001766D01*
X013091Y001740D01*
X013169Y001727D01*
X013166Y001728D02*
X012007Y001728D01*
X011955Y001706D02*
X012164Y001793D01*
X012325Y001953D01*
X012411Y002163D01*
X012411Y002390D01*
X012325Y002599D01*
X012164Y002759D01*
X011955Y002846D01*
X011728Y002846D01*
X011519Y002759D01*
X011358Y002599D01*
X011272Y002390D01*
X011272Y002163D01*
X011358Y001953D01*
X011519Y001793D01*
X011728Y001706D01*
X011955Y001706D01*
X012198Y001826D02*
X012903Y001826D01*
X012795Y001925D02*
X012296Y001925D01*
X012354Y002024D02*
X012731Y002024D01*
X012691Y002122D02*
X012395Y002122D01*
X012411Y002221D02*
X012671Y002221D01*
X012671Y002326D02*
X013169Y002326D01*
X013169Y002226D01*
X013269Y002226D01*
X013269Y001727D01*
X013348Y001740D01*
X013431Y001766D01*
X013508Y001806D01*
X013578Y001857D01*
X013639Y001918D01*
X013690Y001988D01*
X013729Y002065D01*
X013756Y002147D01*
X013768Y002226D01*
X013270Y002226D01*
X013270Y002326D01*
X013768Y002326D01*
X013756Y002405D01*
X013729Y002487D01*
X013690Y002564D01*
X013639Y002634D01*
X013578Y002696D01*
X013508Y002747D01*
X013431Y002786D01*
X013348Y002813D01*
X013269Y002825D01*
X013269Y002326D01*
X013169Y002326D01*
X013169Y002825D01*
X013091Y002813D01*
X013008Y002786D01*
X012931Y002747D01*
X012861Y002696D01*
X012800Y002634D01*
X012749Y002564D01*
X012710Y002487D01*
X012683Y002405D01*
X012671Y002326D01*
X012687Y002418D02*
X012400Y002418D01*
X012411Y002319D02*
X013169Y002319D01*
X013169Y002221D02*
X013269Y002221D01*
X013270Y002319D02*
X016261Y002319D01*
X016261Y002221D02*
X013767Y002221D01*
X013748Y002122D02*
X016261Y002122D01*
X016261Y002024D02*
X013708Y002024D01*
X013644Y001925D02*
X016261Y001925D01*
X016261Y001826D02*
X013536Y001826D01*
X013269Y001826D02*
X013169Y001826D01*
X013169Y001925D02*
X013269Y001925D01*
X013269Y002024D02*
X013169Y002024D01*
X013169Y002122D02*
X013269Y002122D01*
X013269Y002418D02*
X013169Y002418D01*
X013169Y002516D02*
X013269Y002516D01*
X013269Y002615D02*
X013169Y002615D01*
X013169Y002713D02*
X013269Y002713D01*
X013269Y002812D02*
X013169Y002812D01*
X013088Y002812D02*
X012038Y002812D01*
X012211Y002713D02*
X012885Y002713D01*
X012786Y002615D02*
X012309Y002615D01*
X012359Y002516D02*
X012725Y002516D01*
X013351Y002812D02*
X016326Y002812D01*
X016261Y002713D02*
X013554Y002713D01*
X013653Y002615D02*
X016261Y002615D01*
X016261Y002516D02*
X013714Y002516D01*
X013752Y002418D02*
X016261Y002418D01*
X019264Y000920D02*
X019382Y001038D01*
X015076Y004290D02*
X000601Y004290D01*
X000601Y004389D02*
X014985Y004389D01*
X013056Y004586D02*
X012996Y004586D01*
X012996Y004684D02*
X013056Y004684D01*
X013056Y004783D02*
X012996Y004783D01*
X012996Y004881D02*
X013056Y004881D01*
X013056Y004980D02*
X012996Y004980D01*
X012996Y005078D02*
X013056Y005078D01*
X013056Y005275D02*
X012996Y005275D01*
X012996Y005374D02*
X013056Y005374D01*
X013056Y005473D02*
X012996Y005473D01*
X012996Y005571D02*
X013056Y005571D01*
X013056Y005670D02*
X012996Y005670D01*
X012996Y005768D02*
X013056Y005768D01*
X012616Y005078D02*
X012456Y005078D01*
X012456Y004980D02*
X012616Y004980D01*
X012616Y004881D02*
X012456Y004881D01*
X012447Y004783D02*
X012630Y004783D01*
X012671Y004684D02*
X012406Y004684D01*
X012329Y004586D02*
X012752Y004586D01*
X010878Y004487D02*
X010174Y004487D01*
X010112Y004461D02*
X010270Y004527D01*
X010391Y004648D01*
X010456Y004806D01*
X010456Y005497D01*
X010391Y005655D01*
X010270Y005776D01*
X010112Y005841D01*
X009941Y005841D01*
X009783Y005776D01*
X009662Y005655D01*
X009596Y005497D01*
X009596Y004806D01*
X009662Y004648D01*
X009783Y004527D01*
X009941Y004461D01*
X010112Y004461D01*
X009878Y004487D02*
X009174Y004487D01*
X009112Y004461D02*
X009270Y004527D01*
X009391Y004648D01*
X009456Y004806D01*
X009456Y005497D01*
X009391Y005655D01*
X009270Y005776D01*
X009112Y005841D01*
X008941Y005841D01*
X008783Y005776D01*
X008662Y005655D01*
X008596Y005497D01*
X008596Y004806D01*
X008662Y004648D01*
X008783Y004527D01*
X008941Y004461D01*
X009112Y004461D01*
X008878Y004487D02*
X008174Y004487D01*
X008112Y004461D02*
X008270Y004527D01*
X008391Y004648D01*
X008456Y004806D01*
X008456Y005497D01*
X008391Y005655D01*
X008270Y005776D01*
X008112Y005841D01*
X007941Y005841D01*
X007783Y005776D01*
X007662Y005655D01*
X007596Y005497D01*
X007596Y004806D01*
X007662Y004648D01*
X007783Y004527D01*
X007941Y004461D01*
X008112Y004461D01*
X007878Y004487D02*
X007174Y004487D01*
X007112Y004461D02*
X007270Y004527D01*
X007391Y004648D01*
X007456Y004806D01*
X007456Y005497D01*
X007391Y005655D01*
X007270Y005776D01*
X007112Y005841D01*
X006941Y005841D01*
X006783Y005776D01*
X006662Y005655D01*
X006596Y005497D01*
X006596Y004806D01*
X006662Y004648D01*
X006783Y004527D01*
X006941Y004461D01*
X007112Y004461D01*
X006878Y004487D02*
X006174Y004487D01*
X006112Y004461D02*
X006270Y004527D01*
X006391Y004648D01*
X006456Y004806D01*
X006456Y005497D01*
X006391Y005655D01*
X006270Y005776D01*
X006112Y005841D01*
X005941Y005841D01*
X005783Y005776D01*
X005662Y005655D01*
X005596Y005497D01*
X005596Y004806D01*
X005662Y004648D01*
X005783Y004527D01*
X005941Y004461D01*
X006112Y004461D01*
X005878Y004487D02*
X005174Y004487D01*
X005112Y004461D02*
X005270Y004527D01*
X005391Y004648D01*
X005456Y004806D01*
X005456Y005497D01*
X005391Y005655D01*
X005270Y005776D01*
X005112Y005841D01*
X004941Y005841D01*
X004783Y005776D01*
X004662Y005655D01*
X004596Y005497D01*
X004596Y004806D01*
X004662Y004648D01*
X004783Y004527D01*
X004941Y004461D01*
X005112Y004461D01*
X004878Y004487D02*
X004174Y004487D01*
X004112Y004461D02*
X004270Y004527D01*
X004391Y004648D01*
X004456Y004806D01*
X004456Y005497D01*
X004391Y005655D01*
X004270Y005776D01*
X004112Y005841D01*
X003941Y005841D01*
X003920Y005833D01*
X003371Y006381D01*
X003181Y006381D01*
X002546Y006381D01*
X002586Y006421D01*
X006056Y006421D01*
X006246Y006421D01*
X007121Y007296D01*
X007256Y007431D01*
X007256Y007521D01*
X007270Y007527D01*
X007391Y007648D01*
X007456Y007806D01*
X007456Y008497D01*
X007391Y008655D01*
X007270Y008776D01*
X007112Y008841D01*
X006941Y008841D01*
X006783Y008776D01*
X006662Y008655D01*
X006596Y008497D01*
X006596Y007806D01*
X006662Y007648D01*
X006742Y007567D01*
X006056Y006881D01*
X002586Y006881D01*
X002546Y006921D01*
X004181Y006921D01*
X004371Y006921D01*
X004920Y007470D01*
X004941Y007461D01*
X005112Y007461D01*
X005270Y007527D01*
X005391Y007648D01*
X005456Y007806D01*
X005456Y008497D01*
X005391Y008655D01*
X005270Y008776D01*
X005112Y008841D01*
X004941Y008841D01*
X004783Y008776D01*
X004662Y008655D01*
X004596Y008497D01*
X004596Y007806D01*
X004599Y007799D01*
X004181Y007381D01*
X002546Y007381D01*
X002621Y007456D01*
X002621Y007846D01*
X002346Y008121D01*
X001956Y008121D01*
X001681Y007846D01*
X001681Y007456D01*
X001757Y007381D01*
X001556Y007381D01*
X001421Y007246D01*
X001411Y007246D01*
X001421Y007246D02*
X001296Y007121D01*
X000956Y007121D01*
X000681Y006846D01*
X000681Y006456D01*
X000956Y006181D01*
X001346Y006181D01*
X001621Y006456D01*
X001621Y006796D01*
X001746Y006921D01*
X001757Y006921D01*
X001681Y006846D01*
X001681Y006456D01*
X001757Y006381D01*
X001556Y006381D01*
X001421Y006246D01*
X001296Y006121D01*
X000956Y006121D01*
X000681Y005846D01*
X000681Y005456D01*
X000956Y005181D01*
X001346Y005181D01*
X001621Y005456D01*
X001621Y005796D01*
X001746Y005921D01*
X001785Y005921D01*
X001701Y005838D01*
X001701Y005701D01*
X002101Y005701D01*
X002101Y005601D01*
X002201Y005601D01*
X002201Y005201D01*
X002338Y005201D01*
X002601Y005465D01*
X002601Y005601D01*
X002201Y005601D01*
X002201Y005701D01*
X002601Y005701D01*
X002601Y005838D01*
X002517Y005921D01*
X003181Y005921D01*
X003599Y005503D01*
X003596Y005497D01*
X003596Y004806D01*
X003662Y004648D01*
X003783Y004527D01*
X003941Y004461D01*
X004112Y004461D01*
X004329Y004586D02*
X004724Y004586D01*
X004646Y004684D02*
X004406Y004684D01*
X004447Y004783D02*
X004606Y004783D01*
X004596Y004881D02*
X004456Y004881D01*
X004456Y004980D02*
X004596Y004980D01*
X004596Y005078D02*
X004456Y005078D01*
X004456Y005177D02*
X004596Y005177D01*
X004596Y005275D02*
X004456Y005275D01*
X004456Y005374D02*
X004596Y005374D01*
X004596Y005473D02*
X004456Y005473D01*
X004425Y005571D02*
X004627Y005571D01*
X004677Y005670D02*
X004376Y005670D01*
X004277Y005768D02*
X004775Y005768D01*
X005277Y005768D02*
X005775Y005768D01*
X005677Y005670D02*
X005376Y005670D01*
X005425Y005571D02*
X005627Y005571D01*
X005596Y005473D02*
X005456Y005473D01*
X005456Y005374D02*
X005596Y005374D01*
X005596Y005275D02*
X005456Y005275D01*
X005456Y005177D02*
X005596Y005177D01*
X005596Y005078D02*
X005456Y005078D01*
X005456Y004980D02*
X005596Y004980D01*
X005596Y004881D02*
X005456Y004881D01*
X005447Y004783D02*
X005606Y004783D01*
X005646Y004684D02*
X005406Y004684D01*
X005329Y004586D02*
X005724Y004586D01*
X006329Y004586D02*
X006724Y004586D01*
X006646Y004684D02*
X006406Y004684D01*
X006447Y004783D02*
X006606Y004783D01*
X006596Y004881D02*
X006456Y004881D01*
X006456Y004980D02*
X006596Y004980D01*
X006596Y005078D02*
X006456Y005078D01*
X006456Y005177D02*
X006596Y005177D01*
X006596Y005275D02*
X006456Y005275D01*
X006456Y005374D02*
X006596Y005374D01*
X006596Y005473D02*
X006456Y005473D01*
X006425Y005571D02*
X006627Y005571D01*
X006677Y005670D02*
X006376Y005670D01*
X006277Y005768D02*
X006775Y005768D01*
X007277Y005768D02*
X007775Y005768D01*
X007677Y005670D02*
X007376Y005670D01*
X007425Y005571D02*
X007627Y005571D01*
X007596Y005473D02*
X007456Y005473D01*
X007456Y005374D02*
X007596Y005374D01*
X007596Y005275D02*
X007456Y005275D01*
X007456Y005177D02*
X007596Y005177D01*
X007596Y005078D02*
X007456Y005078D01*
X007456Y004980D02*
X007596Y004980D01*
X007596Y004881D02*
X007456Y004881D01*
X007447Y004783D02*
X007606Y004783D01*
X007646Y004684D02*
X007406Y004684D01*
X007329Y004586D02*
X007724Y004586D01*
X008329Y004586D02*
X008724Y004586D01*
X008646Y004684D02*
X008406Y004684D01*
X008447Y004783D02*
X008606Y004783D01*
X008596Y004881D02*
X008456Y004881D01*
X008456Y004980D02*
X008596Y004980D01*
X008596Y005078D02*
X008456Y005078D01*
X008456Y005177D02*
X008596Y005177D01*
X008596Y005275D02*
X008456Y005275D01*
X008456Y005374D02*
X008596Y005374D01*
X008596Y005473D02*
X008456Y005473D01*
X008425Y005571D02*
X008627Y005571D01*
X008677Y005670D02*
X008376Y005670D01*
X008277Y005768D02*
X008775Y005768D01*
X009277Y005768D02*
X009775Y005768D01*
X009677Y005670D02*
X009376Y005670D01*
X009425Y005571D02*
X009627Y005571D01*
X009596Y005473D02*
X009456Y005473D01*
X009456Y005374D02*
X009596Y005374D01*
X009596Y005275D02*
X009456Y005275D01*
X009456Y005177D02*
X009596Y005177D01*
X009596Y005078D02*
X009456Y005078D01*
X009456Y004980D02*
X009596Y004980D01*
X009596Y004881D02*
X009456Y004881D01*
X009447Y004783D02*
X009606Y004783D01*
X009646Y004684D02*
X009406Y004684D01*
X009329Y004586D02*
X009724Y004586D01*
X010329Y004586D02*
X010724Y004586D01*
X010646Y004684D02*
X010406Y004684D01*
X010447Y004783D02*
X010606Y004783D01*
X010596Y004881D02*
X010456Y004881D01*
X010456Y004980D02*
X010596Y004980D01*
X010596Y005078D02*
X010456Y005078D01*
X010456Y005177D02*
X010596Y005177D01*
X010596Y005275D02*
X010456Y005275D01*
X010456Y005374D02*
X010596Y005374D01*
X010596Y005473D02*
X010456Y005473D01*
X010425Y005571D02*
X010627Y005571D01*
X010677Y005670D02*
X010376Y005670D01*
X010277Y005768D02*
X010775Y005768D01*
X010941Y007461D02*
X011112Y007461D01*
X011270Y007527D01*
X011391Y007648D01*
X011456Y007806D01*
X011456Y008497D01*
X011391Y008655D01*
X011270Y008776D01*
X011112Y008841D01*
X010941Y008841D01*
X010783Y008776D01*
X010662Y008655D01*
X010596Y008497D01*
X010596Y007806D01*
X010662Y007648D01*
X010783Y007527D01*
X010941Y007461D01*
X010767Y007542D02*
X010285Y007542D01*
X010270Y007527D02*
X010112Y007461D01*
X009941Y007461D01*
X009783Y007527D01*
X009662Y007648D01*
X009596Y007806D01*
X009596Y008497D01*
X009662Y008655D01*
X009783Y008776D01*
X009941Y008841D01*
X010112Y008841D01*
X010270Y008776D01*
X010391Y008655D01*
X010456Y008497D01*
X010456Y007806D01*
X010391Y007648D01*
X010270Y007527D01*
X010384Y007640D02*
X010669Y007640D01*
X010624Y007739D02*
X010429Y007739D01*
X010456Y007838D02*
X010596Y007838D01*
X010596Y007936D02*
X010456Y007936D01*
X010456Y008035D02*
X010596Y008035D01*
X010596Y008133D02*
X010456Y008133D01*
X010456Y008232D02*
X010596Y008232D01*
X010596Y008330D02*
X010456Y008330D01*
X010456Y008429D02*
X010596Y008429D01*
X010609Y008527D02*
X010443Y008527D01*
X010403Y008626D02*
X010650Y008626D01*
X010731Y008724D02*
X010321Y008724D01*
X010156Y008823D02*
X010897Y008823D01*
X011156Y008823D02*
X011897Y008823D01*
X011941Y008841D02*
X011783Y008776D01*
X011662Y008655D01*
X011596Y008497D01*
X011596Y007806D01*
X011662Y007648D01*
X011783Y007527D01*
X011941Y007461D01*
X012112Y007461D01*
X012270Y007527D01*
X012391Y007648D01*
X012456Y007806D01*
X012456Y008497D01*
X012391Y008655D01*
X012270Y008776D01*
X012112Y008841D01*
X011941Y008841D01*
X012156Y008823D02*
X012897Y008823D01*
X012941Y008841D02*
X012783Y008776D01*
X012662Y008655D01*
X012596Y008497D01*
X012596Y007806D01*
X012662Y007648D01*
X012783Y007527D01*
X012941Y007461D01*
X013112Y007461D01*
X013270Y007527D01*
X013391Y007648D01*
X013456Y007806D01*
X013456Y008497D01*
X013391Y008655D01*
X013270Y008776D01*
X013112Y008841D01*
X012941Y008841D01*
X013156Y008823D02*
X015012Y008823D01*
X014958Y008724D02*
X013321Y008724D01*
X013403Y008626D02*
X014918Y008626D01*
X014916Y008527D02*
X013443Y008527D01*
X013456Y008429D02*
X014917Y008429D01*
X014957Y008330D02*
X013456Y008330D01*
X013456Y008232D02*
X015010Y008232D01*
X015108Y008133D02*
X013456Y008133D01*
X013456Y008035D02*
X015924Y008035D01*
X016022Y007936D02*
X015649Y007936D01*
X015594Y007991D02*
X015431Y007991D01*
X015431Y007556D01*
X015371Y007556D01*
X015371Y007496D01*
X014936Y007496D01*
X014936Y007334D01*
X015209Y007061D01*
X015371Y007061D01*
X015371Y007496D01*
X015431Y007496D01*
X015431Y007061D01*
X015594Y007061D01*
X015866Y007334D01*
X015866Y007496D01*
X015431Y007496D01*
X015431Y007556D01*
X015866Y007556D01*
X015866Y007719D01*
X015594Y007991D01*
X015431Y007936D02*
X015371Y007936D01*
X015371Y007991D02*
X015209Y007991D01*
X014936Y007719D01*
X014936Y007556D01*
X015371Y007556D01*
X015371Y007991D01*
X015371Y007838D02*
X015431Y007838D01*
X015431Y007739D02*
X015371Y007739D01*
X015371Y007640D02*
X015431Y007640D01*
X015431Y007542D02*
X016231Y007542D01*
X016231Y007640D02*
X015866Y007640D01*
X015846Y007739D02*
X016219Y007739D01*
X016121Y007838D02*
X015747Y007838D01*
X015371Y007542D02*
X013285Y007542D01*
X013384Y007640D02*
X014936Y007640D01*
X014956Y007739D02*
X013429Y007739D01*
X013456Y007838D02*
X015055Y007838D01*
X015154Y007936D02*
X013456Y007936D01*
X012767Y007542D02*
X012285Y007542D01*
X012384Y007640D02*
X012669Y007640D01*
X012624Y007739D02*
X012429Y007739D01*
X012456Y007838D02*
X012596Y007838D01*
X012596Y007936D02*
X012456Y007936D01*
X012456Y008035D02*
X012596Y008035D01*
X012596Y008133D02*
X012456Y008133D01*
X012456Y008232D02*
X012596Y008232D01*
X012596Y008330D02*
X012456Y008330D01*
X012456Y008429D02*
X012596Y008429D01*
X012609Y008527D02*
X012443Y008527D01*
X012403Y008626D02*
X012650Y008626D01*
X012731Y008724D02*
X012321Y008724D01*
X011731Y008724D02*
X011321Y008724D01*
X011403Y008626D02*
X011650Y008626D01*
X011609Y008527D02*
X011443Y008527D01*
X011456Y008429D02*
X011596Y008429D01*
X011596Y008330D02*
X011456Y008330D01*
X011456Y008232D02*
X011596Y008232D01*
X011596Y008133D02*
X011456Y008133D01*
X011456Y008035D02*
X011596Y008035D01*
X011596Y007936D02*
X011456Y007936D01*
X011456Y007838D02*
X011596Y007838D01*
X011624Y007739D02*
X011429Y007739D01*
X011384Y007640D02*
X011669Y007640D01*
X011767Y007542D02*
X011285Y007542D01*
X009767Y007542D02*
X009285Y007542D01*
X009384Y007640D02*
X009669Y007640D01*
X009624Y007739D02*
X009429Y007739D01*
X009456Y007838D02*
X009596Y007838D01*
X009596Y007936D02*
X009456Y007936D01*
X009456Y008035D02*
X009596Y008035D01*
X009596Y008133D02*
X009456Y008133D01*
X009456Y008232D02*
X009596Y008232D01*
X009596Y008330D02*
X009456Y008330D01*
X009456Y008429D02*
X009596Y008429D01*
X009609Y008527D02*
X009443Y008527D01*
X009403Y008626D02*
X009650Y008626D01*
X009731Y008724D02*
X009321Y008724D01*
X009301Y008823D02*
X009897Y008823D01*
X009400Y008922D02*
X015111Y008922D01*
X014936Y007443D02*
X007256Y007443D01*
X007285Y007542D02*
X007767Y007542D01*
X007783Y007527D02*
X007941Y007461D01*
X008112Y007461D01*
X008270Y007527D01*
X008391Y007648D01*
X008456Y007806D01*
X008456Y008497D01*
X008391Y008655D01*
X008270Y008776D01*
X008112Y008841D01*
X007941Y008841D01*
X007783Y008776D01*
X007662Y008655D01*
X007596Y008497D01*
X007596Y007806D01*
X007662Y007648D01*
X007783Y007527D01*
X007669Y007640D02*
X007384Y007640D01*
X007429Y007739D02*
X007624Y007739D01*
X007596Y007838D02*
X007456Y007838D01*
X007456Y007936D02*
X007596Y007936D01*
X007596Y008035D02*
X007456Y008035D01*
X007456Y008133D02*
X007596Y008133D01*
X007596Y008232D02*
X007456Y008232D01*
X007456Y008330D02*
X007596Y008330D01*
X007596Y008429D02*
X007456Y008429D01*
X007443Y008527D02*
X007609Y008527D01*
X007650Y008626D02*
X007403Y008626D01*
X007321Y008724D02*
X007731Y008724D01*
X007897Y008823D02*
X007156Y008823D01*
X006897Y008823D02*
X006256Y008823D01*
X006256Y008781D02*
X006256Y008931D01*
X006256Y009121D01*
X005881Y009496D01*
X005881Y009496D01*
X005746Y009631D01*
X001996Y009631D01*
X001806Y009631D01*
X001056Y008881D01*
X000921Y008746D01*
X000921Y008086D01*
X000681Y007846D01*
X000681Y007456D01*
X000956Y007181D01*
X001346Y007181D01*
X001621Y007456D01*
X001621Y007846D01*
X001381Y008086D01*
X001381Y008556D01*
X001996Y009171D01*
X005556Y009171D01*
X005796Y008931D01*
X005796Y008781D01*
X005783Y008776D01*
X005662Y008655D01*
X005596Y008497D01*
X005596Y007806D01*
X005662Y007648D01*
X005783Y007527D01*
X005941Y007461D01*
X006112Y007461D01*
X006270Y007527D01*
X006391Y007648D01*
X006456Y007806D01*
X006456Y008497D01*
X006391Y008655D01*
X006270Y008776D01*
X006256Y008781D01*
X006321Y008724D02*
X006731Y008724D01*
X006650Y008626D02*
X006403Y008626D01*
X006443Y008527D02*
X006609Y008527D01*
X006596Y008429D02*
X006456Y008429D01*
X006456Y008330D02*
X006596Y008330D01*
X006596Y008232D02*
X006456Y008232D01*
X006456Y008133D02*
X006596Y008133D01*
X006596Y008035D02*
X006456Y008035D01*
X006456Y007936D02*
X006596Y007936D01*
X006596Y007838D02*
X006456Y007838D01*
X006429Y007739D02*
X006624Y007739D01*
X006669Y007640D02*
X006384Y007640D01*
X006285Y007542D02*
X006717Y007542D01*
X006618Y007443D02*
X004894Y007443D01*
X004795Y007345D02*
X006520Y007345D01*
X006421Y007246D02*
X004696Y007246D01*
X004598Y007148D02*
X006323Y007148D01*
X006224Y007049D02*
X004499Y007049D01*
X004401Y006951D02*
X006125Y006951D01*
X006579Y006754D02*
X016330Y006754D01*
X016269Y006852D02*
X006677Y006852D01*
X006776Y006951D02*
X016231Y006951D01*
X016231Y007049D02*
X006874Y007049D01*
X006973Y007148D02*
X015122Y007148D01*
X015023Y007246D02*
X007072Y007246D01*
X007170Y007345D02*
X014936Y007345D01*
X015371Y007345D02*
X015431Y007345D01*
X015431Y007443D02*
X015371Y007443D01*
X015371Y007246D02*
X015431Y007246D01*
X015431Y007148D02*
X015371Y007148D01*
X015680Y007148D02*
X016231Y007148D01*
X016231Y007246D02*
X015779Y007246D01*
X015866Y007345D02*
X016231Y007345D01*
X016231Y007443D02*
X015866Y007443D01*
X017124Y007148D02*
X018026Y007148D01*
X018507Y007443D02*
X018640Y007443D01*
X018560Y007345D02*
X018739Y007345D01*
X018837Y007246D02*
X018588Y007246D01*
X018541Y007542D02*
X018421Y007542D01*
X018443Y007640D02*
X018253Y007640D01*
X016428Y006655D02*
X006480Y006655D01*
X006382Y006556D02*
X016527Y006556D01*
X016625Y006458D02*
X006283Y006458D01*
X004243Y007443D02*
X002608Y007443D01*
X002621Y007542D02*
X003767Y007542D01*
X003783Y007527D02*
X003941Y007461D01*
X004112Y007461D01*
X004270Y007527D01*
X004391Y007648D01*
X004456Y007806D01*
X004456Y008497D01*
X004391Y008655D01*
X004270Y008776D01*
X004112Y008841D01*
X003941Y008841D01*
X003783Y008776D01*
X003662Y008655D01*
X003596Y008497D01*
X003596Y007806D01*
X003662Y007648D01*
X003783Y007527D01*
X003669Y007640D02*
X002621Y007640D01*
X002621Y007739D02*
X003624Y007739D01*
X003596Y007838D02*
X002621Y007838D01*
X002531Y007936D02*
X003596Y007936D01*
X003596Y008035D02*
X002432Y008035D01*
X001870Y008035D02*
X001432Y008035D01*
X001381Y008133D02*
X003596Y008133D01*
X003596Y008232D02*
X001381Y008232D01*
X001381Y008330D02*
X003596Y008330D01*
X003596Y008429D02*
X001381Y008429D01*
X001381Y008527D02*
X003609Y008527D01*
X003650Y008626D02*
X001451Y008626D01*
X001550Y008724D02*
X003731Y008724D01*
X003897Y008823D02*
X001648Y008823D01*
X001747Y008922D02*
X005796Y008922D01*
X005796Y008823D02*
X005156Y008823D01*
X005321Y008724D02*
X005731Y008724D01*
X005650Y008626D02*
X005403Y008626D01*
X005443Y008527D02*
X005609Y008527D01*
X005596Y008429D02*
X005456Y008429D01*
X005456Y008330D02*
X005596Y008330D01*
X005596Y008232D02*
X005456Y008232D01*
X005456Y008133D02*
X005596Y008133D01*
X005596Y008035D02*
X005456Y008035D01*
X005456Y007936D02*
X005596Y007936D01*
X005596Y007838D02*
X005456Y007838D01*
X005429Y007739D02*
X005624Y007739D01*
X005669Y007640D02*
X005384Y007640D01*
X005285Y007542D02*
X005767Y007542D01*
X004596Y007838D02*
X004456Y007838D01*
X004456Y007936D02*
X004596Y007936D01*
X004596Y008035D02*
X004456Y008035D01*
X004456Y008133D02*
X004596Y008133D01*
X004596Y008232D02*
X004456Y008232D01*
X004456Y008330D02*
X004596Y008330D01*
X004596Y008429D02*
X004456Y008429D01*
X004443Y008527D02*
X004609Y008527D01*
X004650Y008626D02*
X004403Y008626D01*
X004321Y008724D02*
X004731Y008724D01*
X004897Y008823D02*
X004156Y008823D01*
X005608Y009119D02*
X001944Y009119D01*
X001845Y009020D02*
X005707Y009020D01*
X006160Y009217D02*
X008989Y009217D01*
X009087Y009316D02*
X006062Y009316D01*
X005963Y009414D02*
X009186Y009414D01*
X009284Y009513D02*
X005865Y009513D01*
X005766Y009611D02*
X009383Y009611D01*
X008890Y009119D02*
X006256Y009119D01*
X006256Y009020D02*
X008805Y009020D01*
X008776Y008922D02*
X006256Y008922D01*
X008156Y008823D02*
X008776Y008823D01*
X008731Y008724D02*
X008321Y008724D01*
X008403Y008626D02*
X008650Y008626D01*
X008609Y008527D02*
X008443Y008527D01*
X008456Y008429D02*
X008596Y008429D01*
X008596Y008330D02*
X008456Y008330D01*
X008456Y008232D02*
X008596Y008232D01*
X008596Y008133D02*
X008456Y008133D01*
X008456Y008035D02*
X008596Y008035D01*
X008596Y007936D02*
X008456Y007936D01*
X008456Y007838D02*
X008596Y007838D01*
X008624Y007739D02*
X008429Y007739D01*
X008384Y007640D02*
X008669Y007640D01*
X008767Y007542D02*
X008285Y007542D01*
X004539Y007739D02*
X004429Y007739D01*
X004440Y007640D02*
X004384Y007640D01*
X004342Y007542D02*
X004285Y007542D01*
X003393Y006359D02*
X016724Y006359D01*
X016823Y006261D02*
X003492Y006261D01*
X003235Y005867D02*
X002572Y005867D01*
X002601Y005768D02*
X003334Y005768D01*
X003432Y005670D02*
X002201Y005670D01*
X002201Y005571D02*
X002101Y005571D01*
X002101Y005601D02*
X002101Y005201D01*
X001965Y005201D01*
X001701Y005465D01*
X001701Y005601D01*
X002101Y005601D01*
X002101Y005670D02*
X001621Y005670D01*
X001621Y005768D02*
X001701Y005768D01*
X001692Y005867D02*
X001730Y005867D01*
X001701Y005571D02*
X001621Y005571D01*
X001621Y005473D02*
X001701Y005473D01*
X001792Y005374D02*
X001539Y005374D01*
X001440Y005275D02*
X001891Y005275D01*
X002101Y005275D02*
X002201Y005275D01*
X002201Y005374D02*
X002101Y005374D01*
X002101Y005473D02*
X002201Y005473D01*
X002412Y005275D02*
X003596Y005275D01*
X003596Y005177D02*
X000601Y005177D01*
X000601Y005275D02*
X000862Y005275D01*
X000764Y005374D02*
X000601Y005374D01*
X000601Y005473D02*
X000681Y005473D01*
X000681Y005571D02*
X000601Y005571D01*
X000601Y005670D02*
X000681Y005670D01*
X000681Y005768D02*
X000601Y005768D01*
X000601Y005867D02*
X000702Y005867D01*
X000801Y005965D02*
X000601Y005965D01*
X000601Y006064D02*
X000899Y006064D01*
X000877Y006261D02*
X000601Y006261D01*
X000601Y006359D02*
X000778Y006359D01*
X000681Y006458D02*
X000601Y006458D01*
X000601Y006556D02*
X000681Y006556D01*
X000681Y006655D02*
X000601Y006655D01*
X000601Y006754D02*
X000681Y006754D01*
X000687Y006852D02*
X000601Y006852D01*
X000601Y006951D02*
X000786Y006951D01*
X000885Y007049D02*
X000601Y007049D01*
X000601Y007148D02*
X001323Y007148D01*
X001509Y007345D02*
X001520Y007345D01*
X001608Y007443D02*
X001694Y007443D01*
X001681Y007542D02*
X001621Y007542D01*
X001621Y007640D02*
X001681Y007640D01*
X001681Y007739D02*
X001621Y007739D01*
X001621Y007838D02*
X001681Y007838D01*
X001771Y007936D02*
X001531Y007936D01*
X000921Y008133D02*
X000601Y008133D01*
X000601Y008035D02*
X000870Y008035D01*
X000771Y007936D02*
X000601Y007936D01*
X000601Y007838D02*
X000681Y007838D01*
X000681Y007739D02*
X000601Y007739D01*
X000601Y007640D02*
X000681Y007640D01*
X000681Y007542D02*
X000601Y007542D01*
X000601Y007443D02*
X000694Y007443D01*
X000601Y007345D02*
X000793Y007345D01*
X000891Y007246D02*
X000601Y007246D01*
X001621Y006754D02*
X001681Y006754D01*
X001677Y006852D02*
X001688Y006852D01*
X001681Y006655D02*
X001621Y006655D01*
X001621Y006556D02*
X001681Y006556D01*
X001681Y006458D02*
X001621Y006458D01*
X001534Y006359D02*
X001524Y006359D01*
X001436Y006261D02*
X001426Y006261D01*
X001337Y006162D02*
X000601Y006162D01*
X000601Y005078D02*
X003596Y005078D01*
X003596Y004980D02*
X000601Y004980D01*
X000601Y004881D02*
X003596Y004881D01*
X003606Y004783D02*
X000601Y004783D01*
X000601Y004684D02*
X003646Y004684D01*
X003724Y004586D02*
X000601Y004586D01*
X000601Y004487D02*
X003878Y004487D01*
X003596Y005374D02*
X002510Y005374D01*
X002601Y005473D02*
X003596Y005473D01*
X003531Y005571D02*
X002601Y005571D01*
X000921Y008232D02*
X000601Y008232D01*
X000601Y008330D02*
X000921Y008330D01*
X000921Y008429D02*
X000601Y008429D01*
X000601Y008527D02*
X000921Y008527D01*
X000921Y008626D02*
X000601Y008626D01*
X000601Y008724D02*
X000921Y008724D01*
X000998Y008823D02*
X000601Y008823D01*
X000601Y008922D02*
X001096Y008922D01*
X001195Y009020D02*
X000601Y009020D01*
X000601Y009119D02*
X001293Y009119D01*
X001392Y009217D02*
X000601Y009217D01*
X000601Y009316D02*
X001490Y009316D01*
X001589Y009414D02*
X000601Y009414D01*
X000601Y009513D02*
X001688Y009513D01*
X001786Y009611D02*
X000601Y009611D01*
X000601Y002812D02*
X001646Y002812D01*
X001681Y002846D02*
X001581Y002747D01*
X001581Y001806D01*
X001681Y001706D01*
X002622Y001706D01*
X002721Y001806D01*
X002721Y002747D01*
X002622Y002846D01*
X001681Y002846D01*
X001581Y002713D02*
X000601Y002713D01*
X000601Y002615D02*
X001581Y002615D01*
X001581Y002516D02*
X000601Y002516D01*
X000601Y002418D02*
X001581Y002418D01*
X001581Y002319D02*
X000601Y002319D01*
X000601Y002221D02*
X001581Y002221D01*
X001581Y002122D02*
X000601Y002122D01*
X000601Y002024D02*
X001581Y002024D01*
X001581Y001925D02*
X000601Y001925D01*
X000601Y001826D02*
X001581Y001826D01*
X001659Y001728D02*
X000601Y001728D01*
X002643Y001728D02*
X003475Y001728D01*
X003479Y001728D02*
X003579Y001728D01*
X003579Y001727D02*
X003658Y001740D01*
X003740Y001766D01*
X003817Y001806D01*
X003887Y001857D01*
X003949Y001918D01*
X003999Y001988D01*
X004039Y002065D01*
X004066Y002147D01*
X004078Y002226D01*
X003579Y002226D01*
X003579Y001727D01*
X003583Y001728D02*
X004741Y001728D01*
X004794Y001706D02*
X005020Y001706D01*
X005230Y001793D01*
X005390Y001953D01*
X005477Y002163D01*
X005477Y002390D01*
X005390Y002599D01*
X005230Y002759D01*
X005020Y002846D01*
X004794Y002846D01*
X004584Y002759D01*
X004424Y002599D01*
X004337Y002390D01*
X004337Y002163D01*
X004424Y001953D01*
X004584Y001793D01*
X004794Y001706D01*
X004551Y001826D02*
X003846Y001826D01*
X003954Y001925D02*
X004452Y001925D01*
X004395Y002024D02*
X004018Y002024D01*
X004057Y002122D02*
X004354Y002122D01*
X004337Y002221D02*
X004077Y002221D01*
X004078Y002326D02*
X004066Y002405D01*
X004039Y002487D01*
X003999Y002564D01*
X003949Y002634D01*
X003887Y002696D01*
X003817Y002747D01*
X003740Y002786D01*
X003658Y002813D01*
X003579Y002825D01*
X003579Y002326D01*
X004078Y002326D01*
X004061Y002418D02*
X004349Y002418D01*
X004337Y002319D02*
X003579Y002319D01*
X003579Y002326D02*
X003579Y002226D01*
X003479Y002226D01*
X003479Y001727D01*
X003400Y001740D01*
X003318Y001766D01*
X003241Y001806D01*
X003171Y001857D01*
X003110Y001918D01*
X003059Y001988D01*
X003019Y002065D01*
X002993Y002147D01*
X002980Y002226D01*
X003479Y002226D01*
X003479Y002326D01*
X002980Y002326D01*
X002993Y002405D01*
X003019Y002487D01*
X003059Y002564D01*
X003110Y002634D01*
X003171Y002696D01*
X003241Y002747D01*
X003318Y002786D01*
X003400Y002813D01*
X003479Y002825D01*
X003479Y002326D01*
X003579Y002326D01*
X003579Y002418D02*
X003479Y002418D01*
X003479Y002516D02*
X003579Y002516D01*
X003579Y002615D02*
X003479Y002615D01*
X003479Y002713D02*
X003579Y002713D01*
X003579Y002812D02*
X003479Y002812D01*
X003398Y002812D02*
X002656Y002812D01*
X002721Y002713D02*
X003195Y002713D01*
X003095Y002615D02*
X002721Y002615D01*
X002721Y002516D02*
X003034Y002516D01*
X002997Y002418D02*
X002721Y002418D01*
X002721Y002319D02*
X003479Y002319D01*
X003479Y002221D02*
X003579Y002221D01*
X003579Y002122D02*
X003479Y002122D01*
X003479Y002024D02*
X003579Y002024D01*
X003579Y001925D02*
X003479Y001925D01*
X003479Y001826D02*
X003579Y001826D01*
X003212Y001826D02*
X002721Y001826D01*
X002721Y001925D02*
X003104Y001925D01*
X003041Y002024D02*
X002721Y002024D01*
X002721Y002122D02*
X003001Y002122D01*
X002981Y002221D02*
X002721Y002221D01*
X003863Y002713D02*
X004538Y002713D01*
X004440Y002615D02*
X003963Y002615D01*
X004024Y002516D02*
X004390Y002516D01*
X004711Y002812D02*
X003660Y002812D01*
X005103Y002812D02*
X005803Y002812D01*
X005837Y002846D02*
X005737Y002747D01*
X005737Y001806D01*
X005837Y001706D01*
X006778Y001706D01*
X006877Y001806D01*
X006877Y002747D01*
X006778Y002846D01*
X005837Y002846D01*
X005737Y002713D02*
X005276Y002713D01*
X005375Y002615D02*
X005737Y002615D01*
X005737Y002516D02*
X005425Y002516D01*
X005465Y002418D02*
X005737Y002418D01*
X005737Y002319D02*
X005477Y002319D01*
X005477Y002221D02*
X005737Y002221D01*
X005737Y002122D02*
X005460Y002122D01*
X005419Y002024D02*
X005737Y002024D01*
X005737Y001925D02*
X005362Y001925D01*
X005263Y001826D02*
X005737Y001826D01*
X005815Y001728D02*
X005073Y001728D01*
X006800Y001728D02*
X007520Y001728D01*
X007572Y001706D02*
X007799Y001706D01*
X008008Y001793D01*
X008169Y001953D01*
X008255Y002163D01*
X008255Y002390D01*
X008169Y002599D01*
X008008Y002759D01*
X007799Y002846D01*
X007572Y002846D01*
X007363Y002759D01*
X007202Y002599D01*
X007115Y002390D01*
X007115Y002163D01*
X007202Y001953D01*
X007363Y001793D01*
X007572Y001706D01*
X007329Y001826D02*
X006877Y001826D01*
X006877Y001925D02*
X007231Y001925D01*
X007173Y002024D02*
X006877Y002024D01*
X006877Y002122D02*
X007132Y002122D01*
X007115Y002221D02*
X006877Y002221D01*
X006877Y002319D02*
X007115Y002319D01*
X007127Y002418D02*
X006877Y002418D01*
X006877Y002516D02*
X007168Y002516D01*
X007218Y002615D02*
X006877Y002615D01*
X006877Y002713D02*
X007316Y002713D01*
X007489Y002812D02*
X006812Y002812D01*
X007882Y002812D02*
X008867Y002812D01*
X008950Y002846D02*
X008740Y002759D01*
X008580Y002599D01*
X008493Y002390D01*
X008493Y002163D01*
X008580Y001953D01*
X008740Y001793D01*
X008950Y001706D01*
X009177Y001706D01*
X009386Y001793D01*
X009547Y001953D01*
X009633Y002163D01*
X009633Y002390D01*
X009547Y002599D01*
X009386Y002759D01*
X009177Y002846D01*
X008950Y002846D01*
X008694Y002713D02*
X008054Y002713D01*
X008153Y002615D02*
X008596Y002615D01*
X008546Y002516D02*
X008203Y002516D01*
X008244Y002418D02*
X008505Y002418D01*
X008493Y002319D02*
X008255Y002319D01*
X008255Y002221D02*
X008493Y002221D01*
X008510Y002122D02*
X008239Y002122D01*
X008198Y002024D02*
X008551Y002024D01*
X008608Y001925D02*
X008140Y001925D01*
X008042Y001826D02*
X008707Y001826D01*
X008898Y001728D02*
X007851Y001728D01*
X009229Y001728D02*
X009971Y001728D01*
X009993Y001706D02*
X010934Y001706D01*
X011034Y001806D01*
X011034Y002747D01*
X010934Y002846D01*
X009993Y002846D01*
X009894Y002747D01*
X009894Y001806D01*
X009993Y001706D01*
X009894Y001826D02*
X009420Y001826D01*
X009518Y001925D02*
X009894Y001925D01*
X009894Y002024D02*
X009576Y002024D01*
X009616Y002122D02*
X009894Y002122D01*
X009894Y002221D02*
X009633Y002221D01*
X009633Y002319D02*
X009894Y002319D01*
X009894Y002418D02*
X009622Y002418D01*
X009581Y002516D02*
X009894Y002516D01*
X009894Y002615D02*
X009531Y002615D01*
X009432Y002713D02*
X009894Y002713D01*
X009959Y002812D02*
X009260Y002812D01*
X010968Y002812D02*
X011645Y002812D01*
X011473Y002713D02*
X011034Y002713D01*
X011034Y002615D02*
X011374Y002615D01*
X011324Y002516D02*
X011034Y002516D01*
X011034Y002418D02*
X011283Y002418D01*
X011272Y002319D02*
X011034Y002319D01*
X011034Y002221D02*
X011272Y002221D01*
X011288Y002122D02*
X011034Y002122D01*
X011034Y002024D02*
X011329Y002024D01*
X011387Y001925D02*
X011034Y001925D01*
X011034Y001826D02*
X011485Y001826D01*
X011676Y001728D02*
X010956Y001728D01*
X018259Y005275D02*
X018366Y005275D01*
X018357Y005374D02*
X018419Y005374D01*
X018456Y005473D02*
X018518Y005473D01*
X018746Y005078D02*
X018806Y005078D01*
X018806Y004980D02*
X018746Y004980D01*
X018746Y004881D02*
X018806Y004881D01*
X018806Y004783D02*
X018746Y004783D01*
X018987Y004783D02*
X019106Y004783D01*
X019106Y004881D02*
X019086Y004881D01*
D21*
X018076Y009151D02*
X017826Y009401D01*
X009526Y009401D01*
X009026Y008901D01*
X009026Y008151D01*
M02*
