G75*
G70*
%OFA0B0*%
%FSLAX24Y24*%
%IPPOS*%
%LPD*%
%AMOC8*
5,1,8,0,0,1.08239X$1,22.5*
%
%ADD10C,0.0080*%
%ADD11C,0.0050*%
%ADD12C,0.0070*%
D10*
X001246Y000859D02*
X001246Y001174D01*
X009969Y001174D01*
X009558Y001174D02*
X014125Y001174D01*
X014125Y000859D01*
X009558Y000859D01*
X009969Y000859D02*
X001246Y000859D01*
X001246Y001174D02*
X001246Y003615D01*
X009969Y003615D01*
X009558Y003615D02*
X014125Y003615D01*
X014125Y001174D01*
X016212Y001174D02*
X016212Y000859D01*
X018968Y000859D01*
X018968Y001174D01*
X016212Y001174D01*
X016212Y003615D01*
X018968Y003615D01*
X018968Y001174D01*
X017376Y004326D02*
X017376Y005976D01*
X017776Y006651D02*
X018276Y006651D01*
X018526Y006901D01*
X018526Y007401D01*
X018276Y007651D01*
X018526Y007901D01*
X018526Y008401D01*
X018276Y008651D01*
X018526Y008901D01*
X018526Y009401D01*
X018276Y009651D01*
X017776Y009651D01*
X017526Y009401D01*
X017526Y008901D01*
X017776Y008651D01*
X017526Y008401D01*
X017526Y007901D01*
X017776Y007651D01*
X017526Y007401D01*
X017526Y006901D01*
X017776Y006651D01*
X018816Y007136D02*
X018886Y007066D01*
X018956Y007066D01*
X019026Y007136D01*
X019026Y007276D01*
X019096Y007346D01*
X019166Y007346D01*
X019236Y007276D01*
X019236Y007136D01*
X019166Y007066D01*
X018816Y007136D02*
X018816Y007276D01*
X018886Y007346D01*
X018816Y007527D02*
X019236Y007527D01*
X019236Y007807D01*
X019026Y007667D02*
X019026Y007527D01*
X018816Y007527D02*
X018816Y007807D01*
X018816Y007987D02*
X018816Y008197D01*
X018886Y008267D01*
X019026Y008267D01*
X019096Y008197D01*
X019096Y007987D01*
X019096Y008127D02*
X019236Y008267D01*
X019096Y008447D02*
X019236Y008587D01*
X019096Y008727D01*
X018816Y008727D01*
X018886Y008908D02*
X019166Y008908D01*
X019236Y008978D01*
X019236Y009118D01*
X019166Y009188D01*
X018886Y009188D01*
X018816Y009118D01*
X018816Y008978D01*
X018886Y008908D01*
X018816Y008447D02*
X019096Y008447D01*
X019236Y007987D02*
X018816Y007987D01*
X014051Y008026D02*
X014053Y008099D01*
X014059Y008172D01*
X014069Y008244D01*
X014083Y008316D01*
X014100Y008387D01*
X014122Y008457D01*
X014147Y008526D01*
X014176Y008593D01*
X014208Y008658D01*
X014244Y008722D01*
X014284Y008784D01*
X014326Y008843D01*
X014372Y008900D01*
X014421Y008954D01*
X014473Y009006D01*
X014527Y009055D01*
X014584Y009101D01*
X014643Y009143D01*
X014705Y009183D01*
X014769Y009219D01*
X014834Y009251D01*
X014901Y009280D01*
X014970Y009305D01*
X015040Y009327D01*
X015111Y009344D01*
X015183Y009358D01*
X015255Y009368D01*
X015328Y009374D01*
X015401Y009376D01*
X015474Y009374D01*
X015547Y009368D01*
X015619Y009358D01*
X015691Y009344D01*
X015762Y009327D01*
X015832Y009305D01*
X015901Y009280D01*
X015968Y009251D01*
X016033Y009219D01*
X016097Y009183D01*
X016159Y009143D01*
X016218Y009101D01*
X016275Y009055D01*
X016329Y009006D01*
X016381Y008954D01*
X016430Y008900D01*
X016476Y008843D01*
X016518Y008784D01*
X016558Y008722D01*
X016594Y008658D01*
X016626Y008593D01*
X016655Y008526D01*
X016680Y008457D01*
X016702Y008387D01*
X016719Y008316D01*
X016733Y008244D01*
X016743Y008172D01*
X016749Y008099D01*
X016751Y008026D01*
X016749Y007953D01*
X016743Y007880D01*
X016733Y007808D01*
X016719Y007736D01*
X016702Y007665D01*
X016680Y007595D01*
X016655Y007526D01*
X016626Y007459D01*
X016594Y007394D01*
X016558Y007330D01*
X016518Y007268D01*
X016476Y007209D01*
X016430Y007152D01*
X016381Y007098D01*
X016329Y007046D01*
X016275Y006997D01*
X016218Y006951D01*
X016159Y006909D01*
X016097Y006869D01*
X016033Y006833D01*
X015968Y006801D01*
X015901Y006772D01*
X015832Y006747D01*
X015762Y006725D01*
X015691Y006708D01*
X015619Y006694D01*
X015547Y006684D01*
X015474Y006678D01*
X015401Y006676D01*
X015328Y006678D01*
X015255Y006684D01*
X015183Y006694D01*
X015111Y006708D01*
X015040Y006725D01*
X014970Y006747D01*
X014901Y006772D01*
X014834Y006801D01*
X014769Y006833D01*
X014705Y006869D01*
X014643Y006909D01*
X014584Y006951D01*
X014527Y006997D01*
X014473Y007046D01*
X014421Y007098D01*
X014372Y007152D01*
X014326Y007209D01*
X014284Y007268D01*
X014244Y007330D01*
X014208Y007394D01*
X014176Y007459D01*
X014147Y007526D01*
X014122Y007595D01*
X014100Y007665D01*
X014083Y007736D01*
X014069Y007808D01*
X014059Y007880D01*
X014053Y007953D01*
X014051Y008026D01*
X013726Y007751D02*
X003326Y007751D01*
X003326Y006901D01*
X003356Y006899D01*
X003386Y006894D01*
X003415Y006885D01*
X003442Y006872D01*
X003468Y006857D01*
X003492Y006838D01*
X003513Y006817D01*
X003532Y006793D01*
X003547Y006767D01*
X003560Y006740D01*
X003569Y006711D01*
X003574Y006681D01*
X003576Y006651D01*
X003574Y006621D01*
X003569Y006591D01*
X003560Y006562D01*
X003547Y006535D01*
X003532Y006509D01*
X003513Y006485D01*
X003492Y006464D01*
X003468Y006445D01*
X003442Y006430D01*
X003415Y006417D01*
X003386Y006408D01*
X003356Y006403D01*
X003326Y006401D01*
X003326Y005551D01*
X013726Y005551D01*
X013726Y007751D01*
X011086Y006791D02*
X011086Y006721D01*
X011016Y006651D01*
X011086Y006581D01*
X011086Y006511D01*
X011016Y006441D01*
X010876Y006441D01*
X010806Y006511D01*
X010626Y006441D02*
X010346Y006441D01*
X010486Y006441D02*
X010486Y006862D01*
X010346Y006721D01*
X010165Y006721D02*
X010095Y006651D01*
X010165Y006581D01*
X010165Y006511D01*
X010095Y006441D01*
X009955Y006441D01*
X009885Y006511D01*
X009705Y006441D02*
X009425Y006441D01*
X009705Y006721D01*
X009705Y006791D01*
X009635Y006862D01*
X009495Y006862D01*
X009425Y006791D01*
X009245Y006791D02*
X009105Y006651D01*
X009105Y006441D01*
X009105Y006651D02*
X008964Y006791D01*
X008964Y006862D01*
X008784Y006862D02*
X008784Y006441D01*
X008504Y006862D01*
X008504Y006441D01*
X008337Y006441D02*
X008197Y006441D01*
X008267Y006441D02*
X008267Y006862D01*
X008197Y006862D02*
X008337Y006862D01*
X008017Y006862D02*
X007737Y006862D01*
X007877Y006862D02*
X007877Y006441D01*
X007417Y006441D02*
X007417Y006862D01*
X007277Y006862D02*
X007557Y006862D01*
X007096Y006721D02*
X007096Y006441D01*
X006816Y006441D02*
X006816Y006721D01*
X006956Y006862D01*
X007096Y006721D01*
X007096Y006651D02*
X006816Y006651D01*
X009245Y006791D02*
X009245Y006862D01*
X009885Y006791D02*
X009955Y006862D01*
X010095Y006862D01*
X010165Y006791D01*
X010165Y006721D01*
X010095Y006651D02*
X010025Y006651D01*
X010806Y006791D02*
X010876Y006862D01*
X011016Y006862D01*
X011086Y006791D01*
X011016Y006651D02*
X010946Y006651D01*
X014051Y005151D02*
X014053Y005224D01*
X014059Y005297D01*
X014069Y005369D01*
X014083Y005441D01*
X014100Y005512D01*
X014122Y005582D01*
X014147Y005651D01*
X014176Y005718D01*
X014208Y005783D01*
X014244Y005847D01*
X014284Y005909D01*
X014326Y005968D01*
X014372Y006025D01*
X014421Y006079D01*
X014473Y006131D01*
X014527Y006180D01*
X014584Y006226D01*
X014643Y006268D01*
X014705Y006308D01*
X014769Y006344D01*
X014834Y006376D01*
X014901Y006405D01*
X014970Y006430D01*
X015040Y006452D01*
X015111Y006469D01*
X015183Y006483D01*
X015255Y006493D01*
X015328Y006499D01*
X015401Y006501D01*
X015474Y006499D01*
X015547Y006493D01*
X015619Y006483D01*
X015691Y006469D01*
X015762Y006452D01*
X015832Y006430D01*
X015901Y006405D01*
X015968Y006376D01*
X016033Y006344D01*
X016097Y006308D01*
X016159Y006268D01*
X016218Y006226D01*
X016275Y006180D01*
X016329Y006131D01*
X016381Y006079D01*
X016430Y006025D01*
X016476Y005968D01*
X016518Y005909D01*
X016558Y005847D01*
X016594Y005783D01*
X016626Y005718D01*
X016655Y005651D01*
X016680Y005582D01*
X016702Y005512D01*
X016719Y005441D01*
X016733Y005369D01*
X016743Y005297D01*
X016749Y005224D01*
X016751Y005151D01*
X016749Y005078D01*
X016743Y005005D01*
X016733Y004933D01*
X016719Y004861D01*
X016702Y004790D01*
X016680Y004720D01*
X016655Y004651D01*
X016626Y004584D01*
X016594Y004519D01*
X016558Y004455D01*
X016518Y004393D01*
X016476Y004334D01*
X016430Y004277D01*
X016381Y004223D01*
X016329Y004171D01*
X016275Y004122D01*
X016218Y004076D01*
X016159Y004034D01*
X016097Y003994D01*
X016033Y003958D01*
X015968Y003926D01*
X015901Y003897D01*
X015832Y003872D01*
X015762Y003850D01*
X015691Y003833D01*
X015619Y003819D01*
X015547Y003809D01*
X015474Y003803D01*
X015401Y003801D01*
X015328Y003803D01*
X015255Y003809D01*
X015183Y003819D01*
X015111Y003833D01*
X015040Y003850D01*
X014970Y003872D01*
X014901Y003897D01*
X014834Y003926D01*
X014769Y003958D01*
X014705Y003994D01*
X014643Y004034D01*
X014584Y004076D01*
X014527Y004122D01*
X014473Y004171D01*
X014421Y004223D01*
X014372Y004277D01*
X014326Y004334D01*
X014284Y004393D01*
X014244Y004455D01*
X014208Y004519D01*
X014176Y004584D01*
X014147Y004651D01*
X014122Y004720D01*
X014100Y004790D01*
X014083Y004861D01*
X014069Y004933D01*
X014059Y005005D01*
X014053Y005078D01*
X014051Y005151D01*
X017376Y004326D02*
X017427Y004289D01*
X017480Y004254D01*
X017536Y004222D01*
X017593Y004194D01*
X017652Y004170D01*
X017712Y004149D01*
X017773Y004132D01*
X017835Y004118D01*
X017898Y004109D01*
X017961Y004103D01*
X018025Y004101D01*
X018089Y004103D01*
X018152Y004109D01*
X018215Y004118D01*
X018277Y004131D01*
X018338Y004149D01*
X018398Y004169D01*
X018457Y004194D01*
X018514Y004221D01*
X018570Y004253D01*
X018623Y004287D01*
X018674Y004325D01*
X018723Y004366D01*
X018769Y004410D01*
X018813Y004456D01*
X018854Y004505D01*
X018891Y004556D01*
X018926Y004610D01*
X018957Y004665D01*
X018985Y004722D01*
X019009Y004781D01*
X019029Y004841D01*
X019029Y005461D02*
X019009Y005521D01*
X018985Y005580D01*
X018957Y005637D01*
X018926Y005692D01*
X018891Y005746D01*
X018854Y005797D01*
X018813Y005846D01*
X018769Y005892D01*
X018723Y005936D01*
X018674Y005977D01*
X018623Y006015D01*
X018570Y006049D01*
X018514Y006080D01*
X018457Y006108D01*
X018398Y006133D01*
X018338Y006153D01*
X018277Y006171D01*
X018215Y006184D01*
X018152Y006193D01*
X018089Y006199D01*
X018025Y006201D01*
X017961Y006199D01*
X017898Y006193D01*
X017835Y006184D01*
X017773Y006170D01*
X017712Y006153D01*
X017652Y006132D01*
X017593Y006108D01*
X017536Y006080D01*
X017480Y006048D01*
X017427Y006013D01*
X017376Y005976D01*
X002651Y005901D02*
X002651Y005401D01*
X002401Y005151D01*
X000901Y005151D01*
X000651Y005401D01*
X000651Y005901D01*
X000901Y006151D01*
X002401Y006151D01*
X002651Y005901D01*
X002401Y006151D02*
X002651Y006401D01*
X002651Y006901D01*
X002401Y007151D01*
X000901Y007151D01*
X000651Y006901D01*
X000651Y006401D01*
X000901Y006151D01*
X000901Y007151D02*
X000651Y007401D01*
X000651Y007901D01*
X000901Y008151D01*
X002401Y008151D01*
X002651Y007901D01*
X002651Y007401D01*
X002401Y007151D01*
D11*
X001231Y008346D02*
X001051Y008526D01*
X001051Y008436D02*
X001231Y008436D01*
X001231Y008526D02*
X001051Y008346D01*
X001141Y008346D02*
X001141Y008526D01*
X001301Y004946D02*
X001391Y004946D01*
X001346Y004946D02*
X001346Y004676D01*
X001301Y004676D02*
X001391Y004676D01*
X001498Y004721D02*
X001543Y004676D01*
X001633Y004676D01*
X001678Y004721D01*
X001678Y004766D01*
X001633Y004811D01*
X001543Y004811D01*
X001498Y004856D01*
X001498Y004901D01*
X001543Y004946D01*
X001633Y004946D01*
X001678Y004901D01*
X001792Y004946D02*
X001927Y004946D01*
X001972Y004901D01*
X001972Y004811D01*
X001927Y004766D01*
X001792Y004766D01*
X001792Y004676D02*
X001792Y004946D01*
X001971Y004071D02*
X001971Y003936D01*
X002061Y003981D01*
X002106Y003981D01*
X002151Y003936D01*
X002151Y003846D01*
X002106Y003801D01*
X002016Y003801D01*
X001971Y003846D01*
X001856Y003936D02*
X001676Y003936D01*
X001766Y004026D02*
X001766Y003846D01*
X001971Y004071D02*
X002151Y004071D01*
X002265Y004071D02*
X002265Y003891D01*
X002356Y003801D01*
X002446Y003891D01*
X002446Y004071D01*
X003426Y003936D02*
X003606Y003936D01*
X004676Y003891D02*
X004811Y003891D01*
X004856Y003936D01*
X004856Y004026D01*
X004811Y004071D01*
X004676Y004071D01*
X004676Y003801D01*
X004766Y003891D02*
X004856Y003801D01*
X004971Y003801D02*
X005151Y004071D01*
X004971Y004071D02*
X005151Y003801D01*
X006051Y004071D02*
X006231Y004071D01*
X006141Y004071D02*
X006141Y003801D01*
X006346Y003801D02*
X006526Y004071D01*
X006346Y004071D02*
X006526Y003801D01*
X007301Y003801D02*
X007391Y003801D01*
X007346Y003801D02*
X007346Y004071D01*
X007301Y004071D02*
X007391Y004071D01*
X007498Y004071D02*
X007678Y003801D01*
X007678Y004071D01*
X007792Y004026D02*
X007837Y004071D01*
X007927Y004071D01*
X007972Y004026D01*
X007792Y003846D01*
X007837Y003801D01*
X007927Y003801D01*
X007972Y003846D01*
X007972Y004026D01*
X007792Y004026D02*
X007792Y003846D01*
X007498Y003801D02*
X007498Y004071D01*
X008801Y004071D02*
X008891Y004071D01*
X008846Y004071D02*
X008846Y003801D01*
X008801Y003801D02*
X008891Y003801D01*
X008998Y003801D02*
X008998Y004071D01*
X009178Y003801D01*
X009178Y004071D01*
X009292Y003981D02*
X009382Y004071D01*
X009382Y003801D01*
X009292Y003801D02*
X009472Y003801D01*
X010176Y003801D02*
X010176Y004071D01*
X010311Y004071D01*
X010356Y004026D01*
X010356Y003936D01*
X010311Y003891D01*
X010176Y003891D01*
X010266Y003891D02*
X010356Y003801D01*
X010471Y003801D02*
X010651Y003801D01*
X010765Y003846D02*
X010810Y003801D01*
X010901Y003801D01*
X010946Y003846D01*
X010946Y003891D01*
X010901Y003936D01*
X010810Y003936D01*
X010765Y003981D01*
X010765Y004026D01*
X010810Y004071D01*
X010901Y004071D01*
X010946Y004026D01*
X010471Y004071D02*
X010471Y003801D01*
X011551Y003801D02*
X011686Y003801D01*
X011731Y003846D01*
X011731Y004026D01*
X011686Y004071D01*
X011551Y004071D01*
X011551Y003801D01*
X011846Y003846D02*
X011891Y003801D01*
X011981Y003801D01*
X012026Y003846D01*
X012026Y004026D01*
X011981Y004071D01*
X011891Y004071D01*
X011846Y004026D01*
X011846Y003846D01*
X012140Y003801D02*
X012140Y004071D01*
X012276Y004071D01*
X012321Y004026D01*
X012321Y003936D01*
X012276Y003891D01*
X012140Y003891D01*
X012231Y003891D02*
X012321Y003801D01*
X013176Y003936D02*
X013356Y003936D01*
X014481Y004811D02*
X014616Y004676D01*
X014616Y004856D01*
X014751Y004811D02*
X014481Y004811D01*
X014481Y004971D02*
X014481Y005151D01*
X014526Y005151D01*
X014706Y004971D01*
X014751Y004971D01*
X014706Y005265D02*
X014571Y005265D01*
X014706Y005265D02*
X014751Y005310D01*
X014751Y005446D01*
X014571Y005446D01*
X014616Y005560D02*
X014616Y005650D01*
X014481Y005560D02*
X014481Y005740D01*
X014481Y005560D02*
X014751Y005560D01*
X016981Y005543D02*
X017026Y005498D01*
X017206Y005498D01*
X017251Y005543D01*
X017251Y005633D01*
X017206Y005678D01*
X017116Y005678D01*
X017116Y005588D01*
X017026Y005678D02*
X016981Y005633D01*
X016981Y005543D01*
X016981Y005383D02*
X016981Y005203D01*
X017251Y005203D01*
X017251Y005383D01*
X017116Y005293D02*
X017116Y005203D01*
X017116Y005088D02*
X017026Y005088D01*
X016981Y005043D01*
X016981Y004908D01*
X017251Y004908D01*
X017161Y004908D02*
X017161Y005043D01*
X017116Y005088D01*
X017161Y004998D02*
X017251Y005088D01*
X017161Y004794D02*
X016981Y004794D01*
X017161Y004794D02*
X017251Y004704D01*
X017161Y004614D01*
X016981Y004614D01*
X017015Y004071D02*
X017015Y003891D01*
X017106Y003801D01*
X017196Y003891D01*
X017196Y004071D01*
X016901Y004071D02*
X016811Y004026D01*
X016721Y003936D01*
X016856Y003936D01*
X016901Y003891D01*
X016901Y003846D01*
X016856Y003801D01*
X016766Y003801D01*
X016721Y003846D01*
X016721Y003936D01*
X016606Y003936D02*
X016426Y003936D01*
X016516Y004026D02*
X016516Y003846D01*
X018301Y003936D02*
X018481Y003936D01*
X017331Y007051D02*
X017151Y007051D01*
X017106Y007096D01*
X017106Y007186D01*
X017151Y007231D01*
X017241Y007231D02*
X017241Y007141D01*
X017241Y007231D02*
X017331Y007231D01*
X017376Y007186D01*
X017376Y007096D01*
X017331Y007051D01*
X017266Y008096D02*
X017266Y008276D01*
X017176Y008186D02*
X017356Y008186D01*
X017331Y009051D02*
X017376Y009096D01*
X017376Y009186D01*
X017331Y009231D01*
X017286Y009231D01*
X017241Y009186D01*
X017241Y009096D01*
X017196Y009051D01*
X017151Y009051D01*
X017106Y009096D01*
X017106Y009186D01*
X017151Y009231D01*
X014751Y008435D02*
X014481Y008435D01*
X014481Y008615D01*
X014616Y008525D02*
X014616Y008435D01*
X014571Y008321D02*
X014751Y008321D01*
X014751Y008185D01*
X014706Y008140D01*
X014571Y008140D01*
X014526Y008026D02*
X014706Y007846D01*
X014751Y007846D01*
X014616Y007731D02*
X014616Y007551D01*
X014481Y007686D01*
X014751Y007686D01*
X014481Y007846D02*
X014481Y008026D01*
X014526Y008026D01*
D12*
X015421Y008991D02*
X015421Y009211D01*
X015311Y009101D02*
X015531Y009101D01*
X013321Y009186D02*
X013321Y009351D01*
X013266Y009406D01*
X013156Y009406D01*
X013101Y009351D01*
X012953Y009406D02*
X012788Y009406D01*
X012733Y009351D01*
X012733Y009241D01*
X012788Y009186D01*
X012953Y009186D01*
X013101Y009186D02*
X013101Y009516D01*
X012591Y009406D02*
X012536Y009406D01*
X012426Y009296D01*
X012426Y009186D02*
X012426Y009406D01*
X012278Y009351D02*
X012278Y009186D01*
X012113Y009186D01*
X012058Y009241D01*
X012113Y009296D01*
X012278Y009296D01*
X012278Y009351D02*
X012223Y009406D01*
X012113Y009406D01*
X011910Y009351D02*
X011855Y009406D01*
X011689Y009406D01*
X011689Y009516D02*
X011689Y009186D01*
X011855Y009186D01*
X011910Y009241D01*
X011910Y009351D01*
X011173Y009406D02*
X011008Y009406D01*
X010953Y009351D01*
X010953Y009241D01*
X011008Y009186D01*
X011173Y009186D01*
X010817Y009186D02*
X010707Y009186D01*
X010762Y009186D02*
X010762Y009406D01*
X010707Y009406D01*
X010762Y009516D02*
X010762Y009571D01*
X010566Y009406D02*
X010511Y009406D01*
X010400Y009296D01*
X010400Y009186D02*
X010400Y009406D01*
X010252Y009351D02*
X010252Y009296D01*
X010032Y009296D01*
X010032Y009241D02*
X010032Y009351D01*
X010087Y009406D01*
X010197Y009406D01*
X010252Y009351D01*
X010197Y009186D02*
X010087Y009186D01*
X010032Y009241D01*
X009516Y009186D02*
X009351Y009186D01*
X009296Y009241D01*
X009296Y009406D01*
X009147Y009351D02*
X009092Y009406D01*
X008927Y009406D01*
X008927Y009516D02*
X008927Y009186D01*
X009092Y009186D01*
X009147Y009241D01*
X009147Y009351D01*
X009516Y009406D02*
X009516Y009131D01*
X009461Y009076D01*
X009406Y009076D01*
X008411Y009186D02*
X008191Y009186D01*
X008411Y009406D01*
X008411Y009461D01*
X008356Y009516D01*
X008246Y009516D01*
X008191Y009461D01*
X008042Y009461D02*
X007822Y009241D01*
X007877Y009186D01*
X007987Y009186D01*
X008042Y009241D01*
X008042Y009461D01*
X007987Y009516D01*
X007877Y009516D01*
X007822Y009461D01*
X007822Y009241D01*
X007674Y009406D02*
X007564Y009186D01*
X007454Y009406D01*
X007306Y009131D02*
X007086Y009131D01*
X006938Y009241D02*
X006882Y009296D01*
X006772Y009296D01*
X006717Y009351D01*
X006772Y009406D01*
X006938Y009406D01*
X006938Y009241D02*
X006882Y009186D01*
X006717Y009186D01*
X006569Y009241D02*
X006514Y009296D01*
X006404Y009296D01*
X006349Y009351D01*
X006404Y009406D01*
X006569Y009406D01*
X006201Y009351D02*
X006201Y009296D01*
X005981Y009296D01*
X005981Y009241D02*
X005981Y009351D01*
X006036Y009406D01*
X006146Y009406D01*
X006201Y009351D01*
X006146Y009186D02*
X006036Y009186D01*
X005981Y009241D01*
X005833Y009186D02*
X005667Y009186D01*
X005612Y009241D01*
X005612Y009351D01*
X005667Y009406D01*
X005833Y009406D01*
X005464Y009406D02*
X005299Y009406D01*
X005244Y009351D01*
X005244Y009241D01*
X005299Y009186D01*
X005464Y009186D01*
X005096Y009186D02*
X004931Y009186D01*
X004876Y009241D01*
X004931Y009296D01*
X005096Y009296D01*
X005096Y009351D02*
X005096Y009186D01*
X005096Y009351D02*
X005041Y009406D01*
X004931Y009406D01*
X004366Y009406D02*
X004311Y009406D01*
X004201Y009296D01*
X004201Y009186D02*
X004201Y009406D01*
X004052Y009351D02*
X003997Y009406D01*
X003887Y009406D01*
X003832Y009351D01*
X003832Y009241D01*
X003887Y009186D01*
X003997Y009186D01*
X004052Y009241D01*
X004052Y009351D01*
X003684Y009351D02*
X003684Y009241D01*
X003629Y009186D01*
X003519Y009186D01*
X003464Y009241D01*
X003464Y009351D01*
X003519Y009406D01*
X003629Y009406D01*
X003684Y009351D01*
X003316Y009406D02*
X003151Y009406D01*
X003096Y009351D01*
X003096Y009241D01*
X003151Y009186D01*
X003316Y009186D01*
X003316Y009516D01*
X002948Y009131D02*
X002727Y009131D01*
X002579Y009186D02*
X002414Y009186D01*
X002359Y009241D01*
X002359Y009351D01*
X002414Y009406D01*
X002579Y009406D01*
X002579Y009516D02*
X002579Y009186D01*
X002224Y009186D02*
X002114Y009186D01*
X002169Y009186D02*
X002169Y009406D01*
X002114Y009406D01*
X002169Y009516D02*
X002169Y009571D01*
X001978Y009516D02*
X001923Y009461D01*
X001923Y009186D01*
X001868Y009351D02*
X001978Y009351D01*
X001726Y009406D02*
X001671Y009406D01*
X001561Y009296D01*
X001561Y009186D02*
X001561Y009406D01*
X004508Y009131D02*
X004728Y009131D01*
X006349Y009186D02*
X006514Y009186D01*
X006569Y009241D01*
X015421Y004211D02*
X015421Y003991D01*
X015311Y004101D02*
X015531Y004101D01*
M02*
