%
M48
M72
T01C0.0320
T02C0.0400
T03C0.0472
%
T01
X4026Y5151
X5026Y5151
X6026Y5151
X7026Y5151
X8026Y5151
X9026Y5151
X10026Y5151
X11026Y5151
X12026Y5151
X13026Y5151
X15401Y4651
X15401Y5651
X18026Y5651
X18776Y5151
X18026Y4651
X15401Y7526
X15401Y8526
X13026Y8151
X12026Y8151
X11026Y8151
X10026Y8151
X9026Y8151
X8026Y8151
X7026Y8151
X6026Y8151
X5026Y8151
X4026Y8151
T02
X2151Y7651
X1151Y7651
X1151Y6651
X2151Y6651
X2151Y5651
X1151Y5651
X18076Y7151
X17976Y8151
X18076Y9151
T03
X2151Y2276
X3529Y2276
X4907Y2276
X6307Y2276
X7685Y2276
X9063Y2276
X10464Y2276
X11842Y2276
X13219Y2276
X16831Y2276
X18349Y2276
M30
