G75*
G70*
%OFA0B0*%
%FSLAX24Y24*%
%IPPOS*%
%LPD*%
%AMOC8*
5,1,8,0,0,1.08239X$1,22.5*
%
%ADD10C,0.0600*%
%ADD11C,0.0680*%
%ADD12C,0.1380*%
%ADD13C,0.0867*%
%ADD14OC8,0.0710*%
%ADD15C,0.0710*%
%ADD16OC8,0.0680*%
%ADD17C,0.0640*%
D10*
X005476Y005796D02*
X005476Y006316D01*
X006476Y006316D02*
X006476Y005796D01*
X007476Y005796D02*
X007476Y006316D01*
X008476Y006316D02*
X008476Y005796D01*
X009476Y005796D02*
X009476Y006316D01*
X010476Y006316D02*
X010476Y005796D01*
X011476Y005796D02*
X011476Y006316D01*
X012476Y006316D02*
X012476Y005796D01*
X013476Y005796D02*
X013476Y006316D01*
X014476Y006316D02*
X014476Y005796D01*
X014476Y008796D02*
X014476Y009316D01*
X013476Y009316D02*
X013476Y008796D01*
X012476Y008796D02*
X012476Y009316D01*
X011476Y009316D02*
X011476Y008796D01*
X010476Y008796D02*
X010476Y009316D01*
X009476Y009316D02*
X009476Y008796D01*
X008476Y008796D02*
X008476Y009316D01*
X007476Y009316D02*
X007476Y008796D01*
X006476Y008796D02*
X006476Y009316D01*
X005476Y009316D02*
X005476Y008796D01*
D11*
X002226Y003506D02*
X002226Y002906D01*
X001226Y003006D02*
X001226Y003606D01*
X003226Y003606D02*
X003226Y003006D01*
X005226Y003006D02*
X005226Y003606D01*
X006226Y003506D02*
X006226Y002906D01*
X007226Y003006D02*
X007226Y003606D01*
X008226Y003506D02*
X008226Y002906D01*
X010226Y003006D02*
X010226Y003606D01*
X011226Y003506D02*
X011226Y002906D01*
X012226Y003006D02*
X012226Y003606D01*
X014176Y003606D02*
X014176Y003006D01*
X015276Y003006D02*
X015276Y003606D01*
X019426Y007681D02*
X020026Y007681D01*
X020026Y008681D02*
X019426Y008681D01*
X019426Y009681D02*
X020026Y009681D01*
D12*
X025626Y008681D03*
D13*
X024119Y005527D02*
X023332Y005527D01*
X025616Y004700D02*
X025616Y003912D01*
X024119Y003125D02*
X023332Y003125D01*
D14*
X019226Y004681D03*
X017226Y007056D03*
D15*
X017226Y008056D03*
X019226Y003681D03*
D16*
X003226Y008056D03*
X002226Y008056D03*
X001226Y008056D03*
X001226Y009056D03*
X002226Y009056D03*
X003226Y009056D03*
D17*
X003226Y006086D02*
X003226Y005526D01*
X002226Y005526D02*
X002226Y006086D01*
X001226Y006086D02*
X001226Y005526D01*
M02*
