%
M48
M72
T01C0.0320
T02C0.0360
T03C0.0394
T04C0.0400
T05C0.1300
%
T01
X5476Y6056
X6476Y6056
X7476Y6056
X8476Y6056
X9476Y6056
X10476Y6056
X11476Y6056
X12476Y6056
X13476Y6056
X14476Y6056
X17226Y7056
X17226Y8056
X14476Y9056
X13476Y9056
X12476Y9056
X11476Y9056
X10476Y9056
X9476Y9056
X8476Y9056
X7476Y9056
X6476Y9056
X5476Y9056
X19226Y4681
X19226Y3681
T02
X3226Y5806
X2226Y5806
X1226Y5806
T03
X23726Y5527
X25616Y4306
X23726Y3125
T04
X2226Y3206
X1226Y3306
X3226Y3306
X5226Y3306
X6226Y3206
X7226Y3306
X8226Y3206
X10226Y3306
X11226Y3206
X12226Y3306
X14176Y3306
X15276Y3306
X19726Y7681
X19726Y8681
X19726Y9681
X3226Y9056
X2226Y9056
X1226Y9056
X1226Y8056
X2226Y8056
X3226Y8056
T05
X25626Y8681
M30
