G75*
G70*
%OFA0B0*%
%FSLAX24Y24*%
%IPPOS*%
%LPD*%
%AMOC8*
5,1,8,0,0,1.08239X$1,22.5*
%
%ADD10C,0.0080*%
%ADD11R,0.0350X0.0500*%
%ADD12C,0.0040*%
%ADD13C,0.0090*%
D10*
X000726Y002866D02*
X000836Y002756D01*
X000726Y002866D02*
X000726Y003646D01*
X000836Y003756D01*
X000836Y004046D02*
X000766Y004116D01*
X000836Y004046D02*
X000976Y004046D01*
X001046Y004116D01*
X001046Y004186D01*
X000976Y004256D01*
X000836Y004256D01*
X000766Y004326D01*
X000766Y004396D01*
X000836Y004467D01*
X000976Y004467D01*
X001046Y004396D01*
X001226Y004467D02*
X001226Y004046D01*
X001506Y004046D01*
X001686Y004046D02*
X001686Y004467D01*
X001897Y004467D01*
X001967Y004396D01*
X001967Y004256D01*
X001897Y004186D01*
X001686Y004186D01*
X001827Y004186D02*
X001967Y004046D01*
X002147Y004046D02*
X002287Y004046D01*
X002217Y004046D02*
X002217Y004467D01*
X002147Y004467D02*
X002287Y004467D01*
X002454Y004326D02*
X002594Y004467D01*
X002734Y004326D01*
X002734Y004046D01*
X002914Y004046D02*
X003194Y004046D01*
X002914Y004046D02*
X002914Y004467D01*
X002734Y004256D02*
X002454Y004256D01*
X002454Y004326D02*
X002454Y004046D01*
X001506Y004467D02*
X001226Y004467D01*
X001226Y004256D02*
X001366Y004256D01*
X003616Y003756D02*
X003726Y003646D01*
X003726Y002866D01*
X003616Y002756D01*
X004726Y002866D02*
X004836Y002756D01*
X004726Y002866D02*
X004726Y003646D01*
X004836Y003756D01*
X004766Y004046D02*
X004766Y004467D01*
X004976Y004467D01*
X005046Y004396D01*
X005046Y004256D01*
X004976Y004186D01*
X004766Y004186D01*
X004906Y004186D02*
X005046Y004046D01*
X005226Y004046D02*
X005226Y004467D01*
X005506Y004467D01*
X005686Y004467D02*
X005827Y004467D01*
X005757Y004467D02*
X005757Y004046D01*
X005827Y004046D02*
X005686Y004046D01*
X005993Y004046D02*
X006204Y004046D01*
X006274Y004116D01*
X006274Y004396D01*
X006204Y004467D01*
X005993Y004467D01*
X005993Y004046D01*
X005366Y004256D02*
X005226Y004256D01*
X003726Y005406D02*
X003726Y006206D01*
X003626Y006306D01*
X002826Y006306D01*
X002726Y006206D01*
X002626Y006306D01*
X001826Y006306D01*
X001726Y006206D01*
X001626Y006306D01*
X000826Y006306D01*
X000726Y006206D01*
X000726Y005406D01*
X000826Y005306D01*
X001626Y005306D01*
X001726Y005406D01*
X001826Y005306D01*
X002626Y005306D01*
X002726Y005406D01*
X002826Y005306D01*
X003626Y005306D01*
X003726Y005406D01*
X002987Y006426D02*
X002707Y006426D01*
X002527Y006496D02*
X002247Y006917D01*
X002067Y006846D02*
X002067Y006706D01*
X001997Y006636D01*
X001786Y006636D01*
X001786Y006496D02*
X001786Y006917D01*
X001997Y006917D01*
X002067Y006846D01*
X001927Y006636D02*
X002067Y006496D01*
X002247Y006496D02*
X002527Y006917D01*
X003308Y006917D02*
X003448Y006917D01*
X003378Y006917D02*
X003378Y006566D01*
X003308Y006496D01*
X003238Y006496D01*
X003168Y006566D01*
X001606Y006496D02*
X001326Y006917D01*
X001146Y006917D02*
X000866Y006917D01*
X001006Y006917D02*
X001006Y006496D01*
X001326Y006496D02*
X001606Y006917D01*
X001476Y007556D02*
X000976Y007556D01*
X000726Y007806D01*
X000726Y009306D01*
X000976Y009556D01*
X001476Y009556D01*
X001726Y009306D01*
X001726Y007806D01*
X001976Y007556D01*
X002476Y007556D01*
X002726Y007806D01*
X002976Y007556D01*
X003476Y007556D01*
X003726Y007806D01*
X003726Y009306D01*
X003476Y009556D01*
X002976Y009556D01*
X002726Y009306D01*
X002726Y007806D01*
X001726Y007806D02*
X001476Y007556D01*
X004776Y007306D02*
X004806Y007308D01*
X004836Y007313D01*
X004865Y007322D01*
X004892Y007335D01*
X004918Y007350D01*
X004942Y007369D01*
X004963Y007390D01*
X004982Y007414D01*
X004997Y007440D01*
X005010Y007467D01*
X005019Y007496D01*
X005024Y007526D01*
X005026Y007556D01*
X005024Y007586D01*
X005019Y007616D01*
X005010Y007645D01*
X004997Y007672D01*
X004982Y007698D01*
X004963Y007722D01*
X004942Y007743D01*
X004918Y007762D01*
X004892Y007777D01*
X004865Y007790D01*
X004836Y007799D01*
X004806Y007804D01*
X004776Y007806D01*
X004776Y008656D01*
X015176Y008656D01*
X015176Y006456D01*
X004776Y006456D01*
X004776Y007306D01*
X002726Y009306D02*
X002476Y009556D01*
X001976Y009556D01*
X001726Y009306D01*
X001757Y009846D02*
X001897Y009846D01*
X001967Y009916D01*
X001967Y010196D01*
X001897Y010267D01*
X001757Y010267D01*
X001686Y010196D01*
X001686Y009916D01*
X001757Y009846D01*
X001506Y009846D02*
X001366Y009986D01*
X001436Y009986D02*
X001226Y009986D01*
X001226Y009846D02*
X001226Y010267D01*
X001436Y010267D01*
X001506Y010196D01*
X001506Y010056D01*
X001436Y009986D01*
X001046Y010056D02*
X001046Y010196D01*
X000976Y010267D01*
X000766Y010267D01*
X000766Y009846D01*
X000766Y009986D02*
X000976Y009986D01*
X001046Y010056D01*
X002147Y009916D02*
X002217Y009846D01*
X002357Y009846D01*
X002427Y009916D01*
X002427Y010056D01*
X002287Y010056D01*
X002147Y010196D02*
X002147Y009916D01*
X002147Y010196D02*
X002217Y010267D01*
X002357Y010267D01*
X002427Y010196D01*
X009766Y004396D02*
X009836Y004467D01*
X009976Y004467D01*
X010046Y004396D01*
X009976Y004256D02*
X010046Y004186D01*
X010046Y004116D01*
X009976Y004046D01*
X009836Y004046D01*
X009766Y004116D01*
X009836Y004256D02*
X009976Y004256D01*
X009836Y004256D02*
X009766Y004326D01*
X009766Y004396D01*
X010226Y004467D02*
X010226Y004046D01*
X010506Y004046D01*
X010686Y004046D02*
X010686Y004467D01*
X010897Y004467D01*
X010967Y004396D01*
X010967Y004256D01*
X010897Y004186D01*
X010686Y004186D01*
X010827Y004186D02*
X010967Y004046D01*
X011147Y004186D02*
X011287Y004046D01*
X011427Y004186D01*
X011427Y004467D01*
X011607Y004396D02*
X011677Y004467D01*
X011817Y004467D01*
X011887Y004396D01*
X011887Y004116D01*
X011817Y004046D01*
X011677Y004046D01*
X011607Y004116D01*
X011607Y004396D01*
X011147Y004467D02*
X011147Y004186D01*
X010506Y004467D02*
X010226Y004467D01*
X010226Y004256D02*
X010366Y004256D01*
X009836Y003756D02*
X009726Y003646D01*
X009726Y002866D01*
X009836Y002756D01*
X008726Y002866D02*
X008726Y003646D01*
X008616Y003756D01*
X008726Y002866D02*
X008616Y002756D01*
X012616Y002756D02*
X012726Y002866D01*
X012726Y003646D01*
X012616Y003756D01*
X013726Y003696D02*
X013726Y002916D01*
X013836Y002806D01*
X015616Y002806D02*
X015726Y002916D01*
X015726Y003696D01*
X015616Y003806D01*
X015510Y004021D02*
X015510Y004442D01*
X015720Y004442D01*
X015790Y004371D01*
X015790Y004231D01*
X015720Y004161D01*
X015510Y004161D01*
X015650Y004161D02*
X015790Y004021D01*
X015970Y004091D02*
X016040Y004021D01*
X016180Y004021D01*
X016250Y004091D01*
X016250Y004161D01*
X016180Y004231D01*
X016040Y004231D01*
X015970Y004301D01*
X015970Y004371D01*
X016040Y004442D01*
X016180Y004442D01*
X016250Y004371D01*
X016430Y004442D02*
X016430Y004021D01*
X016570Y004161D01*
X016710Y004021D01*
X016710Y004442D01*
X015329Y004371D02*
X015329Y004091D01*
X015259Y004021D01*
X015119Y004021D01*
X015049Y004091D01*
X015049Y004371D01*
X015119Y004442D01*
X015259Y004442D01*
X015329Y004371D01*
X014869Y004371D02*
X014869Y004091D01*
X014799Y004021D01*
X014659Y004021D01*
X014589Y004091D01*
X014589Y004371D01*
X014659Y004442D01*
X014799Y004442D01*
X014869Y004371D01*
X014409Y004371D02*
X014409Y004091D01*
X014339Y004021D01*
X014128Y004021D01*
X014128Y004442D01*
X014339Y004442D01*
X014409Y004371D01*
X013836Y003806D02*
X013726Y003696D01*
X018224Y002306D02*
X018504Y002306D01*
X018434Y002517D02*
X018224Y002306D01*
X018434Y002096D02*
X018434Y002517D01*
X018685Y002517D02*
X018965Y002517D01*
X018965Y002446D01*
X018685Y002166D01*
X018685Y002096D01*
X019145Y002166D02*
X019215Y002096D01*
X019425Y002096D01*
X019425Y002376D01*
X019605Y002306D02*
X019745Y002306D01*
X019605Y002096D02*
X019605Y002517D01*
X019886Y002517D01*
X019145Y002376D02*
X019145Y002166D01*
X019226Y002981D02*
X019226Y003281D01*
X019376Y003131D02*
X019076Y003131D01*
X017876Y004181D02*
X017878Y004254D01*
X017884Y004327D01*
X017894Y004399D01*
X017908Y004471D01*
X017925Y004542D01*
X017947Y004612D01*
X017972Y004681D01*
X018001Y004748D01*
X018033Y004813D01*
X018069Y004877D01*
X018109Y004939D01*
X018151Y004998D01*
X018197Y005055D01*
X018246Y005109D01*
X018298Y005161D01*
X018352Y005210D01*
X018409Y005256D01*
X018468Y005298D01*
X018530Y005338D01*
X018594Y005374D01*
X018659Y005406D01*
X018726Y005435D01*
X018795Y005460D01*
X018865Y005482D01*
X018936Y005499D01*
X019008Y005513D01*
X019080Y005523D01*
X019153Y005529D01*
X019226Y005531D01*
X019299Y005529D01*
X019372Y005523D01*
X019444Y005513D01*
X019516Y005499D01*
X019587Y005482D01*
X019657Y005460D01*
X019726Y005435D01*
X019793Y005406D01*
X019858Y005374D01*
X019922Y005338D01*
X019984Y005298D01*
X020043Y005256D01*
X020100Y005210D01*
X020154Y005161D01*
X020206Y005109D01*
X020255Y005055D01*
X020301Y004998D01*
X020343Y004939D01*
X020383Y004877D01*
X020419Y004813D01*
X020451Y004748D01*
X020480Y004681D01*
X020505Y004612D01*
X020527Y004542D01*
X020544Y004471D01*
X020558Y004399D01*
X020568Y004327D01*
X020574Y004254D01*
X020576Y004181D01*
X020574Y004108D01*
X020568Y004035D01*
X020558Y003963D01*
X020544Y003891D01*
X020527Y003820D01*
X020505Y003750D01*
X020480Y003681D01*
X020451Y003614D01*
X020419Y003549D01*
X020383Y003485D01*
X020343Y003423D01*
X020301Y003364D01*
X020255Y003307D01*
X020206Y003253D01*
X020154Y003201D01*
X020100Y003152D01*
X020043Y003106D01*
X019984Y003064D01*
X019922Y003024D01*
X019858Y002988D01*
X019793Y002956D01*
X019726Y002927D01*
X019657Y002902D01*
X019587Y002880D01*
X019516Y002863D01*
X019444Y002849D01*
X019372Y002839D01*
X019299Y002833D01*
X019226Y002831D01*
X019153Y002833D01*
X019080Y002839D01*
X019008Y002849D01*
X018936Y002863D01*
X018865Y002880D01*
X018795Y002902D01*
X018726Y002927D01*
X018659Y002956D01*
X018594Y002988D01*
X018530Y003024D01*
X018468Y003064D01*
X018409Y003106D01*
X018352Y003152D01*
X018298Y003201D01*
X018246Y003253D01*
X018197Y003307D01*
X018151Y003364D01*
X018109Y003423D01*
X018069Y003485D01*
X018033Y003549D01*
X018001Y003614D01*
X017972Y003681D01*
X017947Y003750D01*
X017925Y003820D01*
X017908Y003891D01*
X017894Y003963D01*
X017884Y004035D01*
X017878Y004108D01*
X017876Y004181D01*
X022033Y005842D02*
X022663Y005842D01*
X022033Y005842D02*
X022033Y000212D01*
X025419Y000212D01*
X025419Y003342D01*
X025419Y005212D02*
X025419Y005842D01*
X024789Y005842D01*
X025626Y006631D02*
X025626Y006981D01*
X026226Y006981D01*
X026226Y006631D01*
X026976Y006631D01*
X026976Y010731D01*
X026226Y010731D01*
X026226Y010381D01*
X025626Y010381D01*
X025626Y010731D01*
X020726Y010731D01*
X020726Y006631D01*
X025626Y006631D01*
X023660Y008375D02*
X023556Y008271D01*
X023350Y008271D01*
X023246Y008375D01*
X023015Y008375D02*
X022912Y008271D01*
X022705Y008271D01*
X022602Y008375D01*
X023015Y008788D01*
X023015Y008375D01*
X022602Y008375D02*
X022602Y008788D01*
X022705Y008892D01*
X022912Y008892D01*
X023015Y008788D01*
X023246Y008892D02*
X023246Y008581D01*
X023453Y008685D01*
X023556Y008685D01*
X023660Y008581D01*
X023660Y008375D01*
X023660Y008892D02*
X023246Y008892D01*
X022371Y008788D02*
X022371Y008685D01*
X022267Y008581D01*
X022061Y008581D01*
X021957Y008685D01*
X021957Y008788D01*
X022061Y008892D01*
X022267Y008892D01*
X022371Y008788D01*
X022267Y008581D02*
X022371Y008478D01*
X022371Y008375D01*
X022267Y008271D01*
X022061Y008271D01*
X021957Y008375D01*
X021957Y008478D01*
X022061Y008581D01*
X021726Y008788D02*
X021313Y008375D01*
X021313Y008271D01*
X021726Y008788D02*
X021726Y008892D01*
X021313Y008892D01*
X018252Y009642D02*
X017972Y009642D01*
X017972Y009221D01*
X017792Y009221D02*
X017792Y009501D01*
X017972Y009431D02*
X018112Y009431D01*
X017792Y009221D02*
X017582Y009221D01*
X017511Y009291D01*
X017511Y009501D01*
X017331Y009571D02*
X017051Y009291D01*
X017051Y009221D01*
X016801Y009221D02*
X016801Y009642D01*
X016591Y009431D01*
X016871Y009431D01*
X017051Y009642D02*
X017331Y009642D01*
X017331Y009571D01*
X017226Y008756D02*
X017226Y008456D01*
X017076Y008606D02*
X017376Y008606D01*
X015876Y007556D02*
X015878Y007629D01*
X015884Y007702D01*
X015894Y007774D01*
X015908Y007846D01*
X015925Y007917D01*
X015947Y007987D01*
X015972Y008056D01*
X016001Y008123D01*
X016033Y008188D01*
X016069Y008252D01*
X016109Y008314D01*
X016151Y008373D01*
X016197Y008430D01*
X016246Y008484D01*
X016298Y008536D01*
X016352Y008585D01*
X016409Y008631D01*
X016468Y008673D01*
X016530Y008713D01*
X016594Y008749D01*
X016659Y008781D01*
X016726Y008810D01*
X016795Y008835D01*
X016865Y008857D01*
X016936Y008874D01*
X017008Y008888D01*
X017080Y008898D01*
X017153Y008904D01*
X017226Y008906D01*
X017299Y008904D01*
X017372Y008898D01*
X017444Y008888D01*
X017516Y008874D01*
X017587Y008857D01*
X017657Y008835D01*
X017726Y008810D01*
X017793Y008781D01*
X017858Y008749D01*
X017922Y008713D01*
X017984Y008673D01*
X018043Y008631D01*
X018100Y008585D01*
X018154Y008536D01*
X018206Y008484D01*
X018255Y008430D01*
X018301Y008373D01*
X018343Y008314D01*
X018383Y008252D01*
X018419Y008188D01*
X018451Y008123D01*
X018480Y008056D01*
X018505Y007987D01*
X018527Y007917D01*
X018544Y007846D01*
X018558Y007774D01*
X018568Y007702D01*
X018574Y007629D01*
X018576Y007556D01*
X018574Y007483D01*
X018568Y007410D01*
X018558Y007338D01*
X018544Y007266D01*
X018527Y007195D01*
X018505Y007125D01*
X018480Y007056D01*
X018451Y006989D01*
X018419Y006924D01*
X018383Y006860D01*
X018343Y006798D01*
X018301Y006739D01*
X018255Y006682D01*
X018206Y006628D01*
X018154Y006576D01*
X018100Y006527D01*
X018043Y006481D01*
X017984Y006439D01*
X017922Y006399D01*
X017858Y006363D01*
X017793Y006331D01*
X017726Y006302D01*
X017657Y006277D01*
X017587Y006255D01*
X017516Y006238D01*
X017444Y006224D01*
X017372Y006214D01*
X017299Y006208D01*
X017226Y006206D01*
X017153Y006208D01*
X017080Y006214D01*
X017008Y006224D01*
X016936Y006238D01*
X016865Y006255D01*
X016795Y006277D01*
X016726Y006302D01*
X016659Y006331D01*
X016594Y006363D01*
X016530Y006399D01*
X016468Y006439D01*
X016409Y006481D01*
X016352Y006527D01*
X016298Y006576D01*
X016246Y006628D01*
X016197Y006682D01*
X016151Y006739D01*
X016109Y006798D01*
X016069Y006860D01*
X016033Y006924D01*
X016001Y006989D01*
X015972Y007056D01*
X015947Y007125D01*
X015925Y007195D01*
X015908Y007266D01*
X015894Y007338D01*
X015884Y007410D01*
X015878Y007483D01*
X015876Y007556D01*
D11*
X020551Y007681D03*
X020551Y008681D03*
X020551Y009681D03*
D12*
X001279Y002201D02*
X001246Y002235D01*
X001279Y002201D02*
X001346Y002201D01*
X001379Y002235D01*
X001379Y002268D01*
X001346Y002301D01*
X001279Y002301D01*
X001246Y002335D01*
X001246Y002368D01*
X001279Y002401D01*
X001346Y002401D01*
X001379Y002368D01*
X002246Y002301D02*
X002379Y002301D01*
X002312Y002368D02*
X002312Y002235D01*
X003246Y002301D02*
X003379Y002301D01*
X005246Y002301D02*
X005379Y002301D01*
X006246Y002235D02*
X006279Y002201D01*
X006346Y002201D01*
X006379Y002235D01*
X006379Y002301D01*
X006312Y002301D01*
X006246Y002235D02*
X006246Y002368D01*
X006279Y002401D01*
X006346Y002401D01*
X006379Y002368D01*
X007246Y002401D02*
X007246Y002201D01*
X007312Y002268D01*
X007379Y002201D01*
X007379Y002401D01*
X008246Y002301D02*
X008379Y002301D01*
X008312Y002368D02*
X008312Y002235D01*
X010246Y002235D02*
X010279Y002201D01*
X010346Y002201D01*
X010379Y002235D01*
X010379Y002268D01*
X010346Y002301D01*
X010279Y002301D01*
X010246Y002335D01*
X010246Y002368D01*
X010279Y002401D01*
X010346Y002401D01*
X010379Y002368D01*
X011246Y002301D02*
X011379Y002301D01*
X011312Y002368D02*
X011312Y002235D01*
X012246Y002301D02*
X012379Y002301D01*
X003475Y004826D02*
X003342Y005026D01*
X003254Y004993D02*
X003254Y004926D01*
X003221Y004893D01*
X003121Y004893D01*
X003187Y004893D02*
X003254Y004826D01*
X003342Y004826D02*
X003475Y005026D01*
X003254Y004993D02*
X003221Y005026D01*
X003121Y005026D01*
X003121Y004826D01*
X001475Y004826D02*
X001342Y005026D01*
X001254Y005026D02*
X001121Y005026D01*
X001187Y005026D02*
X001187Y004826D01*
X001342Y004826D02*
X001475Y005026D01*
X003621Y007360D02*
X003754Y007493D01*
X003687Y007493D02*
X003687Y007360D01*
X003754Y007360D02*
X003621Y007493D01*
X003621Y007426D02*
X003754Y007426D01*
D13*
X006146Y007351D02*
X006146Y007665D01*
X006303Y007822D01*
X006459Y007665D01*
X006459Y007351D01*
X006818Y007351D02*
X006818Y007822D01*
X006661Y007822D02*
X006975Y007822D01*
X007177Y007822D02*
X007491Y007822D01*
X007334Y007822D02*
X007334Y007351D01*
X007693Y007351D02*
X007849Y007351D01*
X007771Y007351D02*
X007771Y007822D01*
X007693Y007822D02*
X007849Y007822D01*
X008036Y007822D02*
X008350Y007351D01*
X008350Y007822D01*
X008552Y007822D02*
X008552Y007743D01*
X008709Y007586D01*
X008709Y007351D01*
X009068Y007351D02*
X009381Y007665D01*
X009381Y007743D01*
X009303Y007822D01*
X009146Y007822D01*
X009068Y007743D01*
X008866Y007743D02*
X008709Y007586D01*
X008866Y007743D02*
X008866Y007822D01*
X009583Y007743D02*
X009662Y007822D01*
X009819Y007822D01*
X009897Y007743D01*
X009897Y007665D01*
X009819Y007586D01*
X009897Y007508D01*
X009897Y007430D01*
X009819Y007351D01*
X009662Y007351D01*
X009583Y007430D01*
X009381Y007351D02*
X009068Y007351D01*
X009740Y007586D02*
X009819Y007586D01*
X010099Y007665D02*
X010256Y007822D01*
X010256Y007351D01*
X010099Y007351D02*
X010413Y007351D01*
X010615Y007430D02*
X010693Y007351D01*
X010850Y007351D01*
X010928Y007430D01*
X010928Y007508D01*
X010850Y007586D01*
X010771Y007586D01*
X010850Y007586D02*
X010928Y007665D01*
X010928Y007743D01*
X010850Y007822D01*
X010693Y007822D01*
X010615Y007743D01*
X008036Y007822D02*
X008036Y007351D01*
X006459Y007586D02*
X006146Y007586D01*
X007146Y010148D02*
X007459Y010148D01*
X007661Y010305D02*
X007740Y010226D01*
X007975Y010226D01*
X008177Y010305D02*
X008255Y010226D01*
X008412Y010226D01*
X008491Y010305D01*
X008491Y010461D01*
X008412Y010540D01*
X008255Y010540D01*
X008177Y010461D01*
X008177Y010305D01*
X007975Y010540D02*
X007740Y010540D01*
X007661Y010461D01*
X007661Y010305D01*
X006951Y010540D02*
X006873Y010540D01*
X006716Y010383D01*
X006716Y010226D02*
X006716Y010540D01*
X006514Y010461D02*
X006436Y010540D01*
X006279Y010540D01*
X006200Y010461D01*
X006200Y010305D01*
X006279Y010226D01*
X006436Y010226D01*
X006514Y010305D01*
X006514Y010461D01*
X005998Y010461D02*
X005998Y010305D01*
X005920Y010226D01*
X005763Y010226D01*
X005685Y010305D01*
X005685Y010461D01*
X005763Y010540D01*
X005920Y010540D01*
X005998Y010461D01*
X005483Y010540D02*
X005248Y010540D01*
X005169Y010461D01*
X005169Y010305D01*
X005248Y010226D01*
X005483Y010226D01*
X005483Y010697D01*
X004452Y010697D02*
X004452Y010226D01*
X004216Y010226D01*
X004138Y010305D01*
X004138Y010461D01*
X004216Y010540D01*
X004452Y010540D01*
X003873Y010540D02*
X003873Y010226D01*
X003951Y010226D02*
X003794Y010226D01*
X003529Y010226D02*
X003529Y010618D01*
X003607Y010697D01*
X003794Y010540D02*
X003873Y010540D01*
X003873Y010697D02*
X003873Y010775D01*
X003256Y010540D02*
X003178Y010540D01*
X003021Y010383D01*
X003021Y010226D02*
X003021Y010540D01*
X003450Y010461D02*
X003607Y010461D01*
X004654Y010148D02*
X004967Y010148D01*
X008693Y010226D02*
X008693Y010540D01*
X008928Y010540D01*
X009006Y010461D01*
X009006Y010226D01*
X009287Y010305D02*
X009365Y010226D01*
X009287Y010305D02*
X009287Y010618D01*
X009365Y010540D02*
X009208Y010540D01*
X009552Y010540D02*
X009552Y010226D01*
X009982Y010305D02*
X010060Y010226D01*
X010217Y010226D01*
X010295Y010305D01*
X010295Y010461D01*
X010217Y010540D01*
X010060Y010540D01*
X009982Y010461D01*
X009982Y010305D01*
X009709Y010540D02*
X009552Y010383D01*
X009709Y010540D02*
X009787Y010540D01*
X010497Y010697D02*
X010576Y010697D01*
X010576Y010226D01*
X010654Y010226D02*
X010497Y010226D01*
X010841Y010148D02*
X011155Y010148D01*
X011514Y010226D02*
X011670Y010540D01*
X011872Y010618D02*
X011951Y010697D01*
X012108Y010697D01*
X012186Y010618D01*
X011872Y010305D01*
X011951Y010226D01*
X012108Y010226D01*
X012186Y010305D01*
X012186Y010618D01*
X012388Y010540D02*
X012545Y010697D01*
X012545Y010226D01*
X012388Y010226D02*
X012702Y010226D01*
X013419Y010226D02*
X013654Y010226D01*
X013733Y010305D01*
X013733Y010461D01*
X013654Y010540D01*
X013419Y010540D01*
X013419Y010697D02*
X013419Y010226D01*
X013935Y010305D02*
X014013Y010226D01*
X014248Y010226D01*
X014248Y010148D02*
X014170Y010069D01*
X014092Y010069D01*
X014248Y010148D02*
X014248Y010540D01*
X013935Y010540D02*
X013935Y010305D01*
X014966Y010305D02*
X014966Y010461D01*
X015045Y010540D01*
X015201Y010540D01*
X015280Y010461D01*
X015280Y010383D01*
X014966Y010383D01*
X014966Y010305D02*
X015045Y010226D01*
X015201Y010226D01*
X015482Y010226D02*
X015482Y010540D01*
X015482Y010383D02*
X015639Y010540D01*
X015717Y010540D01*
X015911Y010540D02*
X015990Y010540D01*
X015990Y010226D01*
X016068Y010226D02*
X015911Y010226D01*
X016255Y010305D02*
X016334Y010226D01*
X016569Y010226D01*
X016255Y010305D02*
X016255Y010461D01*
X016334Y010540D01*
X016569Y010540D01*
X015990Y010697D02*
X015990Y010775D01*
X017286Y010697D02*
X017286Y010226D01*
X017522Y010226D01*
X017600Y010305D01*
X017600Y010461D01*
X017522Y010540D01*
X017286Y010540D01*
X017802Y010305D02*
X017880Y010383D01*
X018116Y010383D01*
X018116Y010461D02*
X018116Y010226D01*
X017880Y010226D01*
X017802Y010305D01*
X017880Y010540D02*
X018037Y010540D01*
X018116Y010461D01*
X018318Y010383D02*
X018474Y010540D01*
X018553Y010540D01*
X018747Y010461D02*
X018747Y010305D01*
X018826Y010226D01*
X019061Y010226D01*
X019263Y010226D02*
X019263Y010697D01*
X019341Y010540D02*
X019498Y010540D01*
X019577Y010461D01*
X019577Y010226D01*
X019263Y010461D02*
X019341Y010540D01*
X019061Y010540D02*
X018826Y010540D01*
X018747Y010461D01*
X018318Y010540D02*
X018318Y010226D01*
X011872Y010305D02*
X011872Y010618D01*
X011357Y010540D02*
X011514Y010226D01*
M02*
